G04 #@! TF.GenerationSoftware,KiCad,Pcbnew,(5.0.2)-1*
G04 #@! TF.CreationDate,2021-01-10T12:53:51+01:00*
G04 #@! TF.ProjectId,OpenEuroBoard,4f70656e-4575-4726-9f42-6f6172642e6b,rev?*
G04 #@! TF.SameCoordinates,Original*
G04 #@! TF.FileFunction,Copper,L2,Bot*
G04 #@! TF.FilePolarity,Positive*
%FSLAX46Y46*%
G04 Gerber Fmt 4.6, Leading zero omitted, Abs format (unit mm)*
G04 Created by KiCad (PCBNEW (5.0.2)-1) date 10/01/2021 12:53:51*
%MOMM*%
%LPD*%
G01*
G04 APERTURE LIST*
G04 #@! TA.AperFunction,ComponentPad*
%ADD10C,2.700000*%
G04 #@! TD*
G04 #@! TA.AperFunction,ComponentPad*
%ADD11R,2.600000X2.150000*%
G04 #@! TD*
G04 #@! TA.AperFunction,ComponentPad*
%ADD12O,2.800000X2.350000*%
G04 #@! TD*
G04 #@! TA.AperFunction,ComponentPad*
%ADD13C,3.000000*%
G04 #@! TD*
G04 #@! TA.AperFunction,ComponentPad*
%ADD14R,2.400000X1.600000*%
G04 #@! TD*
G04 #@! TA.AperFunction,ComponentPad*
%ADD15O,2.400000X1.600000*%
G04 #@! TD*
G04 #@! TA.AperFunction,ComponentPad*
%ADD16C,1.600000*%
G04 #@! TD*
G04 #@! TA.AperFunction,ComponentPad*
%ADD17O,2.199640X3.497580*%
G04 #@! TD*
G04 #@! TA.AperFunction,ComponentPad*
%ADD18O,3.497580X2.199640*%
G04 #@! TD*
G04 #@! TA.AperFunction,ComponentPad*
%ADD19R,1.700000X1.700000*%
G04 #@! TD*
G04 #@! TA.AperFunction,ComponentPad*
%ADD20O,1.700000X1.700000*%
G04 #@! TD*
G04 #@! TA.AperFunction,ComponentPad*
%ADD21C,2.000000*%
G04 #@! TD*
G04 #@! TA.AperFunction,ComponentPad*
%ADD22C,0.800000*%
G04 #@! TD*
G04 #@! TA.AperFunction,ComponentPad*
%ADD23C,6.400000*%
G04 #@! TD*
G04 #@! TA.AperFunction,Conductor*
%ADD24C,0.100000*%
G04 #@! TD*
G04 #@! TA.AperFunction,ComponentPad*
%ADD25C,1.524000*%
G04 #@! TD*
G04 #@! TA.AperFunction,ComponentPad*
%ADD26C,1.200000*%
G04 #@! TD*
G04 #@! TA.AperFunction,ComponentPad*
%ADD27R,1.200000X1.200000*%
G04 #@! TD*
G04 #@! TA.AperFunction,ComponentPad*
%ADD28C,3.500000*%
G04 #@! TD*
G04 #@! TA.AperFunction,ComponentPad*
%ADD29O,1.500000X2.000000*%
G04 #@! TD*
G04 #@! TA.AperFunction,ComponentPad*
%ADD30O,1.600000X2.400000*%
G04 #@! TD*
G04 #@! TA.AperFunction,ComponentPad*
%ADD31R,1.600000X2.400000*%
G04 #@! TD*
G04 #@! TA.AperFunction,ComponentPad*
%ADD32R,1.600000X1.600000*%
G04 #@! TD*
G04 #@! TA.AperFunction,ComponentPad*
%ADD33O,1.600000X1.600000*%
G04 #@! TD*
G04 #@! TA.AperFunction,ComponentPad*
%ADD34R,1.800000X1.800000*%
G04 #@! TD*
G04 #@! TA.AperFunction,ComponentPad*
%ADD35C,1.800000*%
G04 #@! TD*
G04 #@! TA.AperFunction,ComponentPad*
%ADD36R,1.905000X2.000000*%
G04 #@! TD*
G04 #@! TA.AperFunction,ComponentPad*
%ADD37O,1.905000X2.000000*%
G04 #@! TD*
G04 #@! TA.AperFunction,ComponentPad*
%ADD38C,2.499360*%
G04 #@! TD*
G04 #@! TA.AperFunction,ViaPad*
%ADD39C,0.800000*%
G04 #@! TD*
G04 #@! TA.AperFunction,Conductor*
%ADD40C,0.500000*%
G04 #@! TD*
G04 #@! TA.AperFunction,Conductor*
%ADD41C,0.250000*%
G04 #@! TD*
G04 APERTURE END LIST*
D10*
G04 #@! TO.P,J10,T*
G04 #@! TO.N,Net-(J10-PadT)*
X128336987Y-14994400D03*
D11*
G04 #@! TO.P,J10,S*
G04 #@! TO.N,GND*
X128336987Y-3594400D03*
D12*
G04 #@! TO.P,J10,TN*
G04 #@! TO.N,Net-(J10-PadTN)*
X128336987Y-6694400D03*
G04 #@! TD*
G04 #@! TO.P,J13,TN*
G04 #@! TO.N,Net-(J13-PadTN)*
X158631093Y-6694400D03*
D11*
G04 #@! TO.P,J13,S*
G04 #@! TO.N,GND*
X158631093Y-3594400D03*
D10*
G04 #@! TO.P,J13,T*
G04 #@! TO.N,Net-(J11-Pad6)*
X158631093Y-14994400D03*
G04 #@! TD*
G04 #@! TO.P,J14,T*
G04 #@! TO.N,Net-(J11-Pad7)*
X173778146Y-14994400D03*
D11*
G04 #@! TO.P,J14,S*
G04 #@! TO.N,GND*
X173778146Y-3594400D03*
D12*
G04 #@! TO.P,J14,TN*
G04 #@! TO.N,Net-(J14-PadTN)*
X173778146Y-6694400D03*
G04 #@! TD*
G04 #@! TO.P,J12,TN*
G04 #@! TO.N,Net-(J12-PadTN)*
X143484040Y-6694400D03*
D11*
G04 #@! TO.P,J12,S*
G04 #@! TO.N,GND*
X143484040Y-3594400D03*
D10*
G04 #@! TO.P,J12,T*
G04 #@! TO.N,Net-(J11-Pad5)*
X143484040Y-14994400D03*
G04 #@! TD*
G04 #@! TO.P,J9,T*
G04 #@! TO.N,Net-(J11-Pad3)*
X113189934Y-14994400D03*
D11*
G04 #@! TO.P,J9,S*
G04 #@! TO.N,GND*
X113189934Y-3594400D03*
D12*
G04 #@! TO.P,J9,TN*
G04 #@! TO.N,Net-(J9-PadTN)*
X113189934Y-6694400D03*
G04 #@! TD*
G04 #@! TO.P,J6,TN*
G04 #@! TO.N,Net-(J6-PadTN)*
X82895828Y-6694400D03*
D11*
G04 #@! TO.P,J6,S*
G04 #@! TO.N,GND*
X82895828Y-3594400D03*
D10*
G04 #@! TO.P,J6,T*
G04 #@! TO.N,Net-(J11-Pad1)*
X82895828Y-14994400D03*
G04 #@! TD*
G04 #@! TO.P,J7,T*
G04 #@! TO.N,Net-(J11-Pad2)*
X98042881Y-14994400D03*
D11*
G04 #@! TO.P,J7,S*
G04 #@! TO.N,GND*
X98042881Y-3594400D03*
D12*
G04 #@! TO.P,J7,TN*
G04 #@! TO.N,Net-(J7-PadTN)*
X98042881Y-6694400D03*
G04 #@! TD*
G04 #@! TO.P,J15,TN*
G04 #@! TO.N,Net-(J15-PadTN)*
X188925200Y-6694400D03*
D11*
G04 #@! TO.P,J15,S*
G04 #@! TO.N,GND*
X188925200Y-3594400D03*
D10*
G04 #@! TO.P,J15,T*
G04 #@! TO.N,Net-(J11-Pad8)*
X188925200Y-14994400D03*
G04 #@! TD*
D13*
G04 #@! TO.P,TP6,1*
G04 #@! TO.N,TEST4*
X295848400Y-74143520D03*
G04 #@! TD*
G04 #@! TO.P,TP7,1*
G04 #@! TO.N,TEST2*
X295848400Y-61419040D03*
G04 #@! TD*
G04 #@! TO.P,TP5,1*
G04 #@! TO.N,-12V*
X295848400Y-80505760D03*
G04 #@! TD*
G04 #@! TO.P,TP3,1*
G04 #@! TO.N,TEST1*
X295848400Y-55056800D03*
G04 #@! TD*
G04 #@! TO.P,TP1,1*
G04 #@! TO.N,+5V*
X295848400Y-42332320D03*
G04 #@! TD*
G04 #@! TO.P,TP4,1*
G04 #@! TO.N,+12V*
X295848400Y-48694560D03*
G04 #@! TD*
G04 #@! TO.P,TP2,1*
G04 #@! TO.N,TEST3*
X295848400Y-67781280D03*
G04 #@! TD*
G04 #@! TO.P,TP8,1*
G04 #@! TO.N,GND*
X295848400Y-86868000D03*
G04 #@! TD*
D14*
G04 #@! TO.P,U7,1*
G04 #@! TO.N,Net-(J59-PadR)*
X278363200Y-20406200D03*
D15*
G04 #@! TO.P,U7,5*
G04 #@! TO.N,Net-(J58-Pad1)*
X285983200Y-28026200D03*
G04 #@! TO.P,U7,2*
G04 #@! TO.N,Net-(J59-PadR)*
X278363200Y-22946200D03*
G04 #@! TO.P,U7,6*
G04 #@! TO.N,Net-(J59-PadT)*
X285983200Y-25486200D03*
G04 #@! TO.P,U7,3*
G04 #@! TO.N,Net-(J58-Pad2)*
X278363200Y-25486200D03*
G04 #@! TO.P,U7,7*
G04 #@! TO.N,Net-(J59-PadT)*
X285983200Y-22946200D03*
G04 #@! TO.P,U7,4*
G04 #@! TO.N,-12V*
X278363200Y-28026200D03*
G04 #@! TO.P,U7,8*
G04 #@! TO.N,+12V*
X285983200Y-20406200D03*
G04 #@! TD*
D16*
G04 #@! TO.P,C18,2*
G04 #@! TO.N,-12V*
X280913200Y-31800800D03*
G04 #@! TO.P,C18,1*
G04 #@! TO.N,GND*
X283413200Y-31800800D03*
G04 #@! TD*
G04 #@! TO.P,C17,1*
G04 #@! TO.N,+12V*
X283413200Y-16611600D03*
G04 #@! TO.P,C17,2*
G04 #@! TO.N,GND*
X280913200Y-16611600D03*
G04 #@! TD*
D17*
G04 #@! TO.P,J59,S*
G04 #@! TO.N,GND*
X288358581Y-46748700D03*
D18*
G04 #@! TO.P,J59,T*
G04 #@! TO.N,Net-(J59-PadT)*
X284662881Y-51643280D03*
D17*
G04 #@! TO.P,J59,G*
G04 #@! TO.N,Net-(J59-PadG)*
X281165301Y-46748700D03*
D18*
G04 #@! TO.P,J59,R*
G04 #@! TO.N,Net-(J59-PadR)*
X284662881Y-43548300D03*
G04 #@! TD*
D19*
G04 #@! TO.P,J58,1*
G04 #@! TO.N,Net-(J58-Pad1)*
X257708400Y-90068400D03*
D20*
G04 #@! TO.P,J58,2*
G04 #@! TO.N,Net-(J58-Pad2)*
X257708400Y-92608400D03*
G04 #@! TD*
D19*
G04 #@! TO.P,J56,1*
G04 #@! TO.N,TEST1*
X245160800Y-89611200D03*
D20*
G04 #@! TO.P,J56,2*
G04 #@! TO.N,TEST2*
X245160800Y-92151200D03*
G04 #@! TO.P,J56,3*
G04 #@! TO.N,TEST3*
X245160800Y-94691200D03*
G04 #@! TO.P,J56,4*
G04 #@! TO.N,TEST4*
X245160800Y-97231200D03*
G04 #@! TD*
D19*
G04 #@! TO.P,J57,1*
G04 #@! TO.N,+12V*
X297230800Y-15138400D03*
D20*
G04 #@! TO.P,J57,2*
X297230800Y-17678400D03*
G04 #@! TO.P,J57,3*
G04 #@! TO.N,TEST1*
X297230800Y-20218400D03*
G04 #@! TO.P,J57,4*
G04 #@! TO.N,TEST2*
X297230800Y-22758400D03*
G04 #@! TO.P,J57,5*
G04 #@! TO.N,TEST3*
X297230800Y-25298400D03*
G04 #@! TO.P,J57,6*
G04 #@! TO.N,TEST4*
X297230800Y-27838400D03*
G04 #@! TO.P,J57,7*
G04 #@! TO.N,GND*
X297230800Y-30378400D03*
G04 #@! TO.P,J57,8*
X297230800Y-32918400D03*
G04 #@! TD*
D19*
G04 #@! TO.P,J55,1*
G04 #@! TO.N,Net-(J55-Pad1)*
X234701000Y-9601200D03*
D20*
G04 #@! TO.P,J55,2*
G04 #@! TO.N,Net-(J55-Pad2)*
X234701000Y-7061200D03*
G04 #@! TO.P,J55,3*
G04 #@! TO.N,Net-(J55-Pad3)*
X237241000Y-9601200D03*
G04 #@! TO.P,J55,4*
G04 #@! TO.N,Net-(J55-Pad4)*
X237241000Y-7061200D03*
G04 #@! TO.P,J55,5*
G04 #@! TO.N,Net-(J55-Pad5)*
X239781000Y-9601200D03*
G04 #@! TO.P,J55,6*
G04 #@! TO.N,Net-(J55-Pad6)*
X239781000Y-7061200D03*
G04 #@! TO.P,J55,7*
G04 #@! TO.N,Net-(J55-Pad7)*
X242321000Y-9601200D03*
G04 #@! TO.P,J55,8*
G04 #@! TO.N,Net-(J55-Pad8)*
X242321000Y-7061200D03*
G04 #@! TO.P,J55,9*
G04 #@! TO.N,Net-(J55-Pad9)*
X244861000Y-9601200D03*
G04 #@! TO.P,J55,10*
G04 #@! TO.N,Net-(J55-Pad10)*
X244861000Y-7061200D03*
G04 #@! TD*
D21*
G04 #@! TO.P,J54,1*
G04 #@! TO.N,Net-(J52-Pad1)*
X32891400Y-94183200D03*
G04 #@! TO.P,J54,2*
G04 #@! TO.N,Net-(J52-Pad2)*
X30351400Y-94183200D03*
G04 #@! TO.P,J54,3*
G04 #@! TO.N,Net-(J52-Pad3)*
X27811400Y-94183200D03*
G04 #@! TO.P,J54,4*
G04 #@! TO.N,Net-(J52-Pad4)*
X25271400Y-94183200D03*
G04 #@! TD*
D19*
G04 #@! TO.P,J53,1*
G04 #@! TO.N,Net-(J52-Pad1)*
X56134000Y-86309200D03*
D20*
G04 #@! TO.P,J53,2*
G04 #@! TO.N,Net-(J52-Pad2)*
X56134000Y-88849200D03*
G04 #@! TO.P,J53,3*
G04 #@! TO.N,Net-(J52-Pad3)*
X56134000Y-91389200D03*
G04 #@! TO.P,J53,4*
G04 #@! TO.N,Net-(J52-Pad4)*
X56134000Y-93929200D03*
G04 #@! TD*
D21*
G04 #@! TO.P,J52,1*
G04 #@! TO.N,Net-(J52-Pad1)*
X11582400Y-86106000D03*
G04 #@! TO.P,J52,2*
G04 #@! TO.N,Net-(J52-Pad2)*
X11582400Y-88646000D03*
G04 #@! TO.P,J52,3*
G04 #@! TO.N,Net-(J52-Pad3)*
X11582400Y-91186000D03*
G04 #@! TO.P,J52,4*
G04 #@! TO.N,Net-(J52-Pad4)*
X11582400Y-93726000D03*
G04 #@! TD*
D22*
G04 #@! TO.P,J49,1*
G04 #@! TO.N,Net-(J49-Pad1)*
X71597856Y-3230544D03*
X69900800Y-2527600D03*
X68203744Y-3230544D03*
X67500800Y-4927600D03*
X68203744Y-6624656D03*
X69900800Y-7327600D03*
X71597856Y-6624656D03*
X72300800Y-4927600D03*
D23*
X69900800Y-4927600D03*
G04 #@! TD*
G04 #@! TO.P,J30,1*
G04 #@! TO.N,Net-(J30-Pad1)*
X62687200Y-95250000D03*
D22*
X65087200Y-95250000D03*
X64384256Y-96947056D03*
X62687200Y-97650000D03*
X60990144Y-96947056D03*
X60287200Y-95250000D03*
X60990144Y-93552944D03*
X62687200Y-92850000D03*
X64384256Y-93552944D03*
G04 #@! TD*
G04 #@! TO.P,J51,1*
G04 #@! TO.N,Net-(J51-Pad1)*
X296184656Y-3230544D03*
X294487600Y-2527600D03*
X292790544Y-3230544D03*
X292087600Y-4927600D03*
X292790544Y-6624656D03*
X294487600Y-7327600D03*
X296184656Y-6624656D03*
X296887600Y-4927600D03*
D23*
X294487600Y-4927600D03*
G04 #@! TD*
G04 #@! TO.P,J50,1*
G04 #@! TO.N,Net-(J50-Pad1)*
X5384800Y-4927600D03*
D22*
X7784800Y-4927600D03*
X7081856Y-6624656D03*
X5384800Y-7327600D03*
X3687744Y-6624656D03*
X2984800Y-4927600D03*
X3687744Y-3230544D03*
X5384800Y-2527600D03*
X7081856Y-3230544D03*
G04 #@! TD*
G04 #@! TO.P,J37,1*
G04 #@! TO.N,Net-(J37-Pad1)*
X296184656Y-93552944D03*
X294487600Y-92850000D03*
X292790544Y-93552944D03*
X292087600Y-95250000D03*
X292790544Y-96947056D03*
X294487600Y-97650000D03*
X296184656Y-96947056D03*
X296887600Y-95250000D03*
D23*
X294487600Y-95250000D03*
G04 #@! TD*
G04 #@! TO.P,J38,1*
G04 #@! TO.N,Net-(J38-Pad1)*
X226720400Y-4927600D03*
D22*
X229120400Y-4927600D03*
X228417456Y-6624656D03*
X226720400Y-7327600D03*
X225023344Y-6624656D03*
X224320400Y-4927600D03*
X225023344Y-3230544D03*
X226720400Y-2527600D03*
X228417456Y-3230544D03*
G04 #@! TD*
G04 #@! TO.P,J47,1*
G04 #@! TO.N,Net-(J47-Pad1)*
X239593456Y-93552944D03*
X237896400Y-92850000D03*
X236199344Y-93552944D03*
X235496400Y-95250000D03*
X236199344Y-96947056D03*
X237896400Y-97650000D03*
X239593456Y-96947056D03*
X240296400Y-95250000D03*
D23*
X237896400Y-95250000D03*
G04 #@! TD*
G04 #@! TO.P,J48,1*
G04 #@! TO.N,Net-(J48-Pad1)*
X5384800Y-95250000D03*
D22*
X7784800Y-95250000D03*
X7081856Y-96947056D03*
X5384800Y-97650000D03*
X3687744Y-96947056D03*
X2984800Y-95250000D03*
X3687744Y-93552944D03*
X5384800Y-92850000D03*
X7081856Y-93552944D03*
G04 #@! TD*
D19*
G04 #@! TO.P,J29,1*
G04 #@! TO.N,TRI1*
X237337600Y-79146400D03*
D20*
G04 #@! TO.P,J29,2*
G04 #@! TO.N,SQR1*
X237337600Y-81686400D03*
G04 #@! TO.P,J29,3*
G04 #@! TO.N,TRI2*
X237337600Y-84226400D03*
G04 #@! TO.P,J29,4*
G04 #@! TO.N,SQR2*
X237337600Y-86766400D03*
G04 #@! TD*
D24*
G04 #@! TO.N,TRI2*
G04 #@! TO.C,SW12*
G36*
X251867545Y-82094635D02*
X251904529Y-82100121D01*
X251940798Y-82109206D01*
X251976002Y-82121802D01*
X252009802Y-82137788D01*
X252041872Y-82157010D01*
X252071904Y-82179283D01*
X252099608Y-82204392D01*
X252124717Y-82232096D01*
X252146990Y-82262128D01*
X252166212Y-82294198D01*
X252182198Y-82327998D01*
X252194794Y-82363202D01*
X252203879Y-82399471D01*
X252209365Y-82436455D01*
X252211200Y-82473800D01*
X252211200Y-83235800D01*
X252209365Y-83273145D01*
X252203879Y-83310129D01*
X252194794Y-83346398D01*
X252182198Y-83381602D01*
X252166212Y-83415402D01*
X252146990Y-83447472D01*
X252124717Y-83477504D01*
X252099608Y-83505208D01*
X252071904Y-83530317D01*
X252041872Y-83552590D01*
X252009802Y-83571812D01*
X251976002Y-83587798D01*
X251940798Y-83600394D01*
X251904529Y-83609479D01*
X251867545Y-83614965D01*
X251830200Y-83616800D01*
X251068200Y-83616800D01*
X251030855Y-83614965D01*
X250993871Y-83609479D01*
X250957602Y-83600394D01*
X250922398Y-83587798D01*
X250888598Y-83571812D01*
X250856528Y-83552590D01*
X250826496Y-83530317D01*
X250798792Y-83505208D01*
X250773683Y-83477504D01*
X250751410Y-83447472D01*
X250732188Y-83415402D01*
X250716202Y-83381602D01*
X250703606Y-83346398D01*
X250694521Y-83310129D01*
X250689035Y-83273145D01*
X250687200Y-83235800D01*
X250687200Y-82473800D01*
X250689035Y-82436455D01*
X250694521Y-82399471D01*
X250703606Y-82363202D01*
X250716202Y-82327998D01*
X250732188Y-82294198D01*
X250751410Y-82262128D01*
X250773683Y-82232096D01*
X250798792Y-82204392D01*
X250826496Y-82179283D01*
X250856528Y-82157010D01*
X250888598Y-82137788D01*
X250922398Y-82121802D01*
X250957602Y-82109206D01*
X250993871Y-82100121D01*
X251030855Y-82094635D01*
X251068200Y-82092800D01*
X251830200Y-82092800D01*
X251867545Y-82094635D01*
X251867545Y-82094635D01*
G37*
D25*
G04 #@! TD*
G04 #@! TO.P,SW12,1*
G04 #@! TO.N,TRI2*
X251449200Y-82854800D03*
D24*
G04 #@! TO.N,Net-(C14-Pad2)*
G04 #@! TO.C,SW12*
G36*
X254367545Y-82094635D02*
X254404529Y-82100121D01*
X254440798Y-82109206D01*
X254476002Y-82121802D01*
X254509802Y-82137788D01*
X254541872Y-82157010D01*
X254571904Y-82179283D01*
X254599608Y-82204392D01*
X254624717Y-82232096D01*
X254646990Y-82262128D01*
X254666212Y-82294198D01*
X254682198Y-82327998D01*
X254694794Y-82363202D01*
X254703879Y-82399471D01*
X254709365Y-82436455D01*
X254711200Y-82473800D01*
X254711200Y-83235800D01*
X254709365Y-83273145D01*
X254703879Y-83310129D01*
X254694794Y-83346398D01*
X254682198Y-83381602D01*
X254666212Y-83415402D01*
X254646990Y-83447472D01*
X254624717Y-83477504D01*
X254599608Y-83505208D01*
X254571904Y-83530317D01*
X254541872Y-83552590D01*
X254509802Y-83571812D01*
X254476002Y-83587798D01*
X254440798Y-83600394D01*
X254404529Y-83609479D01*
X254367545Y-83614965D01*
X254330200Y-83616800D01*
X253568200Y-83616800D01*
X253530855Y-83614965D01*
X253493871Y-83609479D01*
X253457602Y-83600394D01*
X253422398Y-83587798D01*
X253388598Y-83571812D01*
X253356528Y-83552590D01*
X253326496Y-83530317D01*
X253298792Y-83505208D01*
X253273683Y-83477504D01*
X253251410Y-83447472D01*
X253232188Y-83415402D01*
X253216202Y-83381602D01*
X253203606Y-83346398D01*
X253194521Y-83310129D01*
X253189035Y-83273145D01*
X253187200Y-83235800D01*
X253187200Y-82473800D01*
X253189035Y-82436455D01*
X253194521Y-82399471D01*
X253203606Y-82363202D01*
X253216202Y-82327998D01*
X253232188Y-82294198D01*
X253251410Y-82262128D01*
X253273683Y-82232096D01*
X253298792Y-82204392D01*
X253326496Y-82179283D01*
X253356528Y-82157010D01*
X253388598Y-82137788D01*
X253422398Y-82121802D01*
X253457602Y-82109206D01*
X253493871Y-82100121D01*
X253530855Y-82094635D01*
X253568200Y-82092800D01*
X254330200Y-82092800D01*
X254367545Y-82094635D01*
X254367545Y-82094635D01*
G37*
D25*
G04 #@! TD*
G04 #@! TO.P,SW12,2*
G04 #@! TO.N,Net-(C14-Pad2)*
X253949200Y-82854800D03*
D24*
G04 #@! TO.N,Net-(R21-Pad2)*
G04 #@! TO.C,SW12*
G36*
X256867545Y-82094635D02*
X256904529Y-82100121D01*
X256940798Y-82109206D01*
X256976002Y-82121802D01*
X257009802Y-82137788D01*
X257041872Y-82157010D01*
X257071904Y-82179283D01*
X257099608Y-82204392D01*
X257124717Y-82232096D01*
X257146990Y-82262128D01*
X257166212Y-82294198D01*
X257182198Y-82327998D01*
X257194794Y-82363202D01*
X257203879Y-82399471D01*
X257209365Y-82436455D01*
X257211200Y-82473800D01*
X257211200Y-83235800D01*
X257209365Y-83273145D01*
X257203879Y-83310129D01*
X257194794Y-83346398D01*
X257182198Y-83381602D01*
X257166212Y-83415402D01*
X257146990Y-83447472D01*
X257124717Y-83477504D01*
X257099608Y-83505208D01*
X257071904Y-83530317D01*
X257041872Y-83552590D01*
X257009802Y-83571812D01*
X256976002Y-83587798D01*
X256940798Y-83600394D01*
X256904529Y-83609479D01*
X256867545Y-83614965D01*
X256830200Y-83616800D01*
X256068200Y-83616800D01*
X256030855Y-83614965D01*
X255993871Y-83609479D01*
X255957602Y-83600394D01*
X255922398Y-83587798D01*
X255888598Y-83571812D01*
X255856528Y-83552590D01*
X255826496Y-83530317D01*
X255798792Y-83505208D01*
X255773683Y-83477504D01*
X255751410Y-83447472D01*
X255732188Y-83415402D01*
X255716202Y-83381602D01*
X255703606Y-83346398D01*
X255694521Y-83310129D01*
X255689035Y-83273145D01*
X255687200Y-83235800D01*
X255687200Y-82473800D01*
X255689035Y-82436455D01*
X255694521Y-82399471D01*
X255703606Y-82363202D01*
X255716202Y-82327998D01*
X255732188Y-82294198D01*
X255751410Y-82262128D01*
X255773683Y-82232096D01*
X255798792Y-82204392D01*
X255826496Y-82179283D01*
X255856528Y-82157010D01*
X255888598Y-82137788D01*
X255922398Y-82121802D01*
X255957602Y-82109206D01*
X255993871Y-82100121D01*
X256030855Y-82094635D01*
X256068200Y-82092800D01*
X256830200Y-82092800D01*
X256867545Y-82094635D01*
X256867545Y-82094635D01*
G37*
D25*
G04 #@! TD*
G04 #@! TO.P,SW12,3*
G04 #@! TO.N,Net-(R21-Pad2)*
X256449200Y-82854800D03*
D16*
G04 #@! TO.P,C14,1*
G04 #@! TO.N,Net-(C12-Pad2)*
X252526800Y-69494400D03*
G04 #@! TO.P,C14,2*
G04 #@! TO.N,Net-(C14-Pad2)*
X250026800Y-69494400D03*
G04 #@! TD*
G04 #@! TO.P,C13,2*
G04 #@! TO.N,Net-(C13-Pad2)*
X259334000Y-69494400D03*
G04 #@! TO.P,C13,1*
G04 #@! TO.N,Net-(C11-Pad2)*
X256834000Y-69494400D03*
G04 #@! TD*
G04 #@! TO.P,C11,2*
G04 #@! TO.N,Net-(C11-Pad2)*
X256834000Y-74168000D03*
G04 #@! TO.P,C11,1*
G04 #@! TO.N,TRI1*
X259334000Y-74168000D03*
G04 #@! TD*
G04 #@! TO.P,C12,1*
G04 #@! TO.N,TRI2*
X250026800Y-74168000D03*
G04 #@! TO.P,C12,2*
G04 #@! TO.N,Net-(C12-Pad2)*
X252526800Y-74168000D03*
G04 #@! TD*
D19*
G04 #@! TO.P,J28,1*
G04 #@! TO.N,+12V*
X237337600Y-54711600D03*
D20*
G04 #@! TO.P,J28,2*
X237337600Y-57251600D03*
G04 #@! TO.P,J28,3*
G04 #@! TO.N,+5V*
X237337600Y-59791600D03*
G04 #@! TO.P,J28,4*
X237337600Y-62331600D03*
G04 #@! TO.P,J28,5*
G04 #@! TO.N,GND*
X237337600Y-64871600D03*
G04 #@! TO.P,J28,6*
X237337600Y-67411600D03*
G04 #@! TO.P,J28,7*
G04 #@! TO.N,-12V*
X237337600Y-69951600D03*
G04 #@! TO.P,J28,8*
X237337600Y-72491600D03*
G04 #@! TD*
D19*
G04 #@! TO.P,J27,1*
G04 #@! TO.N,+12V*
X63195200Y-61061600D03*
D20*
G04 #@! TO.P,J27,2*
X63195200Y-63601600D03*
G04 #@! TO.P,J27,3*
G04 #@! TO.N,+5V*
X63195200Y-66141600D03*
G04 #@! TO.P,J27,4*
X63195200Y-68681600D03*
G04 #@! TO.P,J27,5*
G04 #@! TO.N,GND*
X63195200Y-71221600D03*
G04 #@! TO.P,J27,6*
X63195200Y-73761600D03*
G04 #@! TO.P,J27,7*
G04 #@! TO.N,-12V*
X63195200Y-76301600D03*
G04 #@! TO.P,J27,8*
X63195200Y-78841600D03*
G04 #@! TD*
D19*
G04 #@! TO.P,J46,1*
G04 #@! TO.N,GATE1*
X237337600Y-39319200D03*
D20*
G04 #@! TO.P,J46,2*
G04 #@! TO.N,GATE2*
X237337600Y-41859200D03*
G04 #@! TO.P,J46,3*
G04 #@! TO.N,CV1*
X237337600Y-44399200D03*
G04 #@! TO.P,J46,4*
G04 #@! TO.N,CV2*
X237337600Y-46939200D03*
G04 #@! TD*
D19*
G04 #@! TO.P,J45,1*
G04 #@! TO.N,MIDI_RX*
X72491600Y-43586400D03*
D20*
G04 #@! TO.P,J45,2*
G04 #@! TO.N,MIDI_TX*
X69951600Y-43586400D03*
G04 #@! TD*
D26*
G04 #@! TO.P,C1,2*
G04 #@! TO.N,GND*
X15951200Y-35375600D03*
D27*
G04 #@! TO.P,C1,1*
G04 #@! TO.N,+12V*
X15951200Y-33375600D03*
G04 #@! TD*
G04 #@! TO.P,C6,1*
G04 #@! TO.N,+5V*
X15951200Y-27787600D03*
D26*
G04 #@! TO.P,C6,2*
G04 #@! TO.N,GND*
X15951200Y-29787600D03*
G04 #@! TD*
D20*
G04 #@! TO.P,J44,3*
G04 #@! TO.N,Net-(J42-Pad2)*
X162458400Y-31343600D03*
G04 #@! TO.P,J44,2*
G04 #@! TO.N,Net-(J42-Pad3)*
X164998400Y-31343600D03*
D19*
G04 #@! TO.P,J44,1*
G04 #@! TO.N,Net-(J42-Pad4)*
X167538400Y-31343600D03*
G04 #@! TD*
G04 #@! TO.P,J40,1*
G04 #@! TO.N,Net-(J39-Pad4)*
X184810400Y-41351200D03*
D20*
G04 #@! TO.P,J40,2*
G04 #@! TO.N,Net-(J39-Pad3)*
X182270400Y-41351200D03*
G04 #@! TO.P,J40,3*
G04 #@! TO.N,Net-(J39-Pad2)*
X179730400Y-41351200D03*
G04 #@! TD*
G04 #@! TO.P,J41,3*
G04 #@! TO.N,Net-(J39-Pad2)*
X179730400Y-31343600D03*
G04 #@! TO.P,J41,2*
G04 #@! TO.N,Net-(J39-Pad3)*
X182270400Y-31343600D03*
D19*
G04 #@! TO.P,J41,1*
G04 #@! TO.N,Net-(J39-Pad4)*
X184810400Y-31343600D03*
G04 #@! TD*
G04 #@! TO.P,J43,1*
G04 #@! TO.N,Net-(J42-Pad4)*
X167538400Y-41351200D03*
D20*
G04 #@! TO.P,J43,2*
G04 #@! TO.N,Net-(J42-Pad3)*
X164998400Y-41351200D03*
G04 #@! TO.P,J43,3*
G04 #@! TO.N,Net-(J42-Pad2)*
X162458400Y-41351200D03*
G04 #@! TD*
G04 #@! TO.P,J42,5*
G04 #@! TO.N,+12V*
X170077150Y-36336099D03*
G04 #@! TO.P,J42,4*
G04 #@! TO.N,Net-(J42-Pad4)*
X167537150Y-36336099D03*
G04 #@! TO.P,J42,3*
G04 #@! TO.N,Net-(J42-Pad3)*
X164997150Y-36336099D03*
G04 #@! TO.P,J42,2*
G04 #@! TO.N,Net-(J42-Pad2)*
X162457150Y-36336099D03*
D19*
G04 #@! TO.P,J42,1*
G04 #@! TO.N,GND*
X159917150Y-36336099D03*
G04 #@! TD*
G04 #@! TO.P,J39,1*
G04 #@! TO.N,GND*
X177187900Y-36386899D03*
D20*
G04 #@! TO.P,J39,2*
G04 #@! TO.N,Net-(J39-Pad2)*
X179727900Y-36386899D03*
G04 #@! TO.P,J39,3*
G04 #@! TO.N,Net-(J39-Pad3)*
X182267900Y-36386899D03*
G04 #@! TO.P,J39,4*
G04 #@! TO.N,Net-(J39-Pad4)*
X184807900Y-36386899D03*
G04 #@! TO.P,J39,5*
G04 #@! TO.N,+12V*
X187347900Y-36386899D03*
G04 #@! TD*
G04 #@! TO.P,J32,3*
G04 #@! TO.N,Net-(J31-Pad2)*
X97637600Y-41351200D03*
G04 #@! TO.P,J32,2*
G04 #@! TO.N,Net-(J31-Pad3)*
X100177600Y-41351200D03*
D19*
G04 #@! TO.P,J32,1*
G04 #@! TO.N,Net-(J31-Pad4)*
X102717600Y-41351200D03*
G04 #@! TD*
G04 #@! TO.P,J26,1*
G04 #@! TO.N,Net-(J25-Pad4)*
X135128000Y-41351200D03*
D20*
G04 #@! TO.P,J26,2*
G04 #@! TO.N,Net-(J25-Pad3)*
X132588000Y-41351200D03*
G04 #@! TO.P,J26,3*
G04 #@! TO.N,Net-(J25-Pad2)*
X130048000Y-41351200D03*
G04 #@! TD*
G04 #@! TO.P,J24,3*
G04 #@! TO.N,Net-(J23-Pad2)*
X81432400Y-41351200D03*
G04 #@! TO.P,J24,2*
G04 #@! TO.N,Net-(J23-Pad3)*
X83972400Y-41351200D03*
D19*
G04 #@! TO.P,J24,1*
G04 #@! TO.N,Net-(J23-Pad4)*
X86512400Y-41351200D03*
G04 #@! TD*
D20*
G04 #@! TO.P,J36,3*
G04 #@! TO.N,Net-(J35-Pad2)*
X113842800Y-41351200D03*
G04 #@! TO.P,J36,2*
G04 #@! TO.N,Net-(J35-Pad3)*
X116382800Y-41351200D03*
D19*
G04 #@! TO.P,J36,1*
G04 #@! TO.N,Net-(J35-Pad4)*
X118922800Y-41351200D03*
G04 #@! TD*
G04 #@! TO.P,J34,1*
G04 #@! TO.N,Net-(J33-Pad4)*
X151333200Y-41351200D03*
D20*
G04 #@! TO.P,J34,2*
G04 #@! TO.N,Net-(J33-Pad3)*
X148793200Y-41351200D03*
G04 #@! TO.P,J34,3*
G04 #@! TO.N,Net-(J33-Pad2)*
X146253200Y-41351200D03*
G04 #@! TD*
D19*
G04 #@! TO.P,J31,1*
G04 #@! TO.N,GND*
X95101350Y-36336099D03*
D20*
G04 #@! TO.P,J31,2*
G04 #@! TO.N,Net-(J31-Pad2)*
X97641350Y-36336099D03*
G04 #@! TO.P,J31,3*
G04 #@! TO.N,Net-(J31-Pad3)*
X100181350Y-36336099D03*
G04 #@! TO.P,J31,4*
G04 #@! TO.N,Net-(J31-Pad4)*
X102721350Y-36336099D03*
G04 #@! TO.P,J31,5*
G04 #@! TO.N,+12V*
X105261350Y-36336099D03*
G04 #@! TD*
G04 #@! TO.P,J25,5*
G04 #@! TO.N,+12V*
X137669250Y-36336099D03*
G04 #@! TO.P,J25,4*
G04 #@! TO.N,Net-(J25-Pad4)*
X135129250Y-36336099D03*
G04 #@! TO.P,J25,3*
G04 #@! TO.N,Net-(J25-Pad3)*
X132589250Y-36336099D03*
G04 #@! TO.P,J25,2*
G04 #@! TO.N,Net-(J25-Pad2)*
X130049250Y-36336099D03*
D19*
G04 #@! TO.P,J25,1*
G04 #@! TO.N,GND*
X127509250Y-36336099D03*
G04 #@! TD*
G04 #@! TO.P,J33,1*
G04 #@! TO.N,GND*
X143713200Y-36336099D03*
D20*
G04 #@! TO.P,J33,2*
G04 #@! TO.N,Net-(J33-Pad2)*
X146253200Y-36336099D03*
G04 #@! TO.P,J33,3*
G04 #@! TO.N,Net-(J33-Pad3)*
X148793200Y-36336099D03*
G04 #@! TO.P,J33,4*
G04 #@! TO.N,Net-(J33-Pad4)*
X151333200Y-36336099D03*
G04 #@! TO.P,J33,5*
G04 #@! TO.N,+12V*
X153873200Y-36336099D03*
G04 #@! TD*
G04 #@! TO.P,J23,5*
G04 #@! TO.N,+12V*
X89057400Y-36336099D03*
G04 #@! TO.P,J23,4*
G04 #@! TO.N,Net-(J23-Pad4)*
X86517400Y-36336099D03*
G04 #@! TO.P,J23,3*
G04 #@! TO.N,Net-(J23-Pad3)*
X83977400Y-36336099D03*
G04 #@! TO.P,J23,2*
G04 #@! TO.N,Net-(J23-Pad2)*
X81437400Y-36336099D03*
D19*
G04 #@! TO.P,J23,1*
G04 #@! TO.N,GND*
X78897400Y-36336099D03*
G04 #@! TD*
G04 #@! TO.P,J35,1*
G04 #@! TO.N,GND*
X111305300Y-36336099D03*
D20*
G04 #@! TO.P,J35,2*
G04 #@! TO.N,Net-(J35-Pad2)*
X113845300Y-36336099D03*
G04 #@! TO.P,J35,3*
G04 #@! TO.N,Net-(J35-Pad3)*
X116385300Y-36336099D03*
G04 #@! TO.P,J35,4*
G04 #@! TO.N,Net-(J35-Pad4)*
X118925300Y-36336099D03*
G04 #@! TO.P,J35,5*
G04 #@! TO.N,+12V*
X121465300Y-36336099D03*
G04 #@! TD*
D28*
G04 #@! TO.P,RV10,*
G04 #@! TO.N,*
X153593200Y-25146000D03*
X143993200Y-25146000D03*
D29*
G04 #@! TO.P,RV10,3*
G04 #@! TO.N,Net-(J33-Pad4)*
X151293200Y-32146000D03*
G04 #@! TO.P,RV10,2*
G04 #@! TO.N,Net-(J33-Pad3)*
X148793200Y-32146000D03*
G04 #@! TO.P,RV10,1*
G04 #@! TO.N,Net-(J33-Pad2)*
X146293200Y-32146000D03*
G04 #@! TD*
G04 #@! TO.P,RV6,1*
G04 #@! TO.N,Net-(J25-Pad2)*
X130088000Y-32146000D03*
G04 #@! TO.P,RV6,2*
G04 #@! TO.N,Net-(J25-Pad3)*
X132588000Y-32146000D03*
G04 #@! TO.P,RV6,3*
G04 #@! TO.N,Net-(J25-Pad4)*
X135088000Y-32146000D03*
D28*
G04 #@! TO.P,RV6,*
G04 #@! TO.N,*
X127788000Y-25146000D03*
X137388000Y-25146000D03*
G04 #@! TD*
G04 #@! TO.P,RV11,*
G04 #@! TO.N,*
X121182800Y-25146000D03*
X111582800Y-25146000D03*
D29*
G04 #@! TO.P,RV11,3*
G04 #@! TO.N,Net-(J35-Pad4)*
X118882800Y-32146000D03*
G04 #@! TO.P,RV11,2*
G04 #@! TO.N,Net-(J35-Pad3)*
X116382800Y-32146000D03*
G04 #@! TO.P,RV11,1*
G04 #@! TO.N,Net-(J35-Pad2)*
X113882800Y-32146000D03*
G04 #@! TD*
G04 #@! TO.P,RV9,1*
G04 #@! TO.N,Net-(J31-Pad2)*
X97677600Y-32146000D03*
G04 #@! TO.P,RV9,2*
G04 #@! TO.N,Net-(J31-Pad3)*
X100177600Y-32146000D03*
G04 #@! TO.P,RV9,3*
G04 #@! TO.N,Net-(J31-Pad4)*
X102677600Y-32146000D03*
D28*
G04 #@! TO.P,RV9,*
G04 #@! TO.N,*
X95377600Y-25146000D03*
X104977600Y-25146000D03*
G04 #@! TD*
D30*
G04 #@! TO.P,U3,14*
G04 #@! TO.N,Net-(J4-Pad7)*
X34026774Y-63006440D03*
G04 #@! TO.P,U3,7*
G04 #@! TO.N,Net-(J5-Pad1)*
X49266774Y-70626440D03*
G04 #@! TO.P,U3,13*
G04 #@! TO.N,Net-(J4-Pad6)*
X36566774Y-63006440D03*
G04 #@! TO.P,U3,6*
G04 #@! TO.N,Net-(J5-Pad2)*
X46726774Y-70626440D03*
G04 #@! TO.P,U3,12*
G04 #@! TO.N,Net-(J4-Pad5)*
X39106774Y-63006440D03*
G04 #@! TO.P,U3,5*
G04 #@! TO.N,Net-(J5-Pad3)*
X44186774Y-70626440D03*
G04 #@! TO.P,U3,11*
G04 #@! TO.N,-12V*
X41646774Y-63006440D03*
G04 #@! TO.P,U3,4*
G04 #@! TO.N,+12V*
X41646774Y-70626440D03*
G04 #@! TO.P,U3,10*
G04 #@! TO.N,Net-(J4-Pad3)*
X44186774Y-63006440D03*
G04 #@! TO.P,U3,3*
G04 #@! TO.N,Net-(J5-Pad5)*
X39106774Y-70626440D03*
G04 #@! TO.P,U3,9*
G04 #@! TO.N,Net-(J4-Pad2)*
X46726774Y-63006440D03*
G04 #@! TO.P,U3,2*
G04 #@! TO.N,Net-(J5-Pad6)*
X36566774Y-70626440D03*
G04 #@! TO.P,U3,8*
G04 #@! TO.N,Net-(J4-Pad1)*
X49266774Y-63006440D03*
D31*
G04 #@! TO.P,U3,1*
G04 #@! TO.N,Net-(J5-Pad7)*
X34026774Y-70626440D03*
G04 #@! TD*
G04 #@! TO.P,U2,1*
G04 #@! TO.N,Net-(J3-Pad7)*
X8118000Y-70626440D03*
D30*
G04 #@! TO.P,U2,8*
G04 #@! TO.N,Net-(J2-Pad1)*
X23358000Y-63006440D03*
G04 #@! TO.P,U2,2*
G04 #@! TO.N,Net-(J3-Pad6)*
X10658000Y-70626440D03*
G04 #@! TO.P,U2,9*
G04 #@! TO.N,Net-(J2-Pad2)*
X20818000Y-63006440D03*
G04 #@! TO.P,U2,3*
G04 #@! TO.N,Net-(J3-Pad5)*
X13198000Y-70626440D03*
G04 #@! TO.P,U2,10*
G04 #@! TO.N,Net-(J2-Pad3)*
X18278000Y-63006440D03*
G04 #@! TO.P,U2,4*
G04 #@! TO.N,+12V*
X15738000Y-70626440D03*
G04 #@! TO.P,U2,11*
G04 #@! TO.N,-12V*
X15738000Y-63006440D03*
G04 #@! TO.P,U2,5*
G04 #@! TO.N,Net-(J3-Pad3)*
X18278000Y-70626440D03*
G04 #@! TO.P,U2,12*
G04 #@! TO.N,Net-(J2-Pad5)*
X13198000Y-63006440D03*
G04 #@! TO.P,U2,6*
G04 #@! TO.N,Net-(J3-Pad2)*
X20818000Y-70626440D03*
G04 #@! TO.P,U2,13*
G04 #@! TO.N,Net-(J2-Pad6)*
X10658000Y-63006440D03*
G04 #@! TO.P,U2,7*
G04 #@! TO.N,Net-(J3-Pad1)*
X23358000Y-70626440D03*
G04 #@! TO.P,U2,14*
G04 #@! TO.N,Net-(J2-Pad7)*
X8118000Y-63006440D03*
G04 #@! TD*
D14*
G04 #@! TO.P,U4,1*
G04 #@! TO.N,Net-(R10-Pad2)*
X49377600Y-20828000D03*
D15*
G04 #@! TO.P,U4,5*
X56997600Y-28448000D03*
G04 #@! TO.P,U4,2*
X49377600Y-23368000D03*
G04 #@! TO.P,U4,6*
G04 #@! TO.N,MIDI_TX*
X56997600Y-25908000D03*
G04 #@! TO.P,U4,3*
G04 #@! TO.N,Net-(R13-Pad1)*
X49377600Y-25908000D03*
G04 #@! TO.P,U4,7*
G04 #@! TO.N,MIDI_TX*
X56997600Y-23368000D03*
G04 #@! TO.P,U4,4*
G04 #@! TO.N,GND*
X49377600Y-28448000D03*
G04 #@! TO.P,U4,8*
G04 #@! TO.N,+5V*
X56997600Y-20828000D03*
G04 #@! TD*
D24*
G04 #@! TO.N,Net-(J22-Pad3)*
G04 #@! TO.C,SW10*
G36*
X216623375Y-6351835D02*
X216660359Y-6357321D01*
X216696628Y-6366406D01*
X216731832Y-6379002D01*
X216765632Y-6394988D01*
X216797702Y-6414210D01*
X216827734Y-6436483D01*
X216855438Y-6461592D01*
X216880547Y-6489296D01*
X216902820Y-6519328D01*
X216922042Y-6551398D01*
X216938028Y-6585198D01*
X216950624Y-6620402D01*
X216959709Y-6656671D01*
X216965195Y-6693655D01*
X216967030Y-6731000D01*
X216967030Y-7493000D01*
X216965195Y-7530345D01*
X216959709Y-7567329D01*
X216950624Y-7603598D01*
X216938028Y-7638802D01*
X216922042Y-7672602D01*
X216902820Y-7704672D01*
X216880547Y-7734704D01*
X216855438Y-7762408D01*
X216827734Y-7787517D01*
X216797702Y-7809790D01*
X216765632Y-7829012D01*
X216731832Y-7844998D01*
X216696628Y-7857594D01*
X216660359Y-7866679D01*
X216623375Y-7872165D01*
X216586030Y-7874000D01*
X215824030Y-7874000D01*
X215786685Y-7872165D01*
X215749701Y-7866679D01*
X215713432Y-7857594D01*
X215678228Y-7844998D01*
X215644428Y-7829012D01*
X215612358Y-7809790D01*
X215582326Y-7787517D01*
X215554622Y-7762408D01*
X215529513Y-7734704D01*
X215507240Y-7704672D01*
X215488018Y-7672602D01*
X215472032Y-7638802D01*
X215459436Y-7603598D01*
X215450351Y-7567329D01*
X215444865Y-7530345D01*
X215443030Y-7493000D01*
X215443030Y-6731000D01*
X215444865Y-6693655D01*
X215450351Y-6656671D01*
X215459436Y-6620402D01*
X215472032Y-6585198D01*
X215488018Y-6551398D01*
X215507240Y-6519328D01*
X215529513Y-6489296D01*
X215554622Y-6461592D01*
X215582326Y-6436483D01*
X215612358Y-6414210D01*
X215644428Y-6394988D01*
X215678228Y-6379002D01*
X215713432Y-6366406D01*
X215749701Y-6357321D01*
X215786685Y-6351835D01*
X215824030Y-6350000D01*
X216586030Y-6350000D01*
X216623375Y-6351835D01*
X216623375Y-6351835D01*
G37*
D25*
G04 #@! TD*
G04 #@! TO.P,SW10,3*
G04 #@! TO.N,Net-(J22-Pad3)*
X216205030Y-7112000D03*
D24*
G04 #@! TO.N,Net-(J22-Pad2)*
G04 #@! TO.C,SW10*
G36*
X214123375Y-6351835D02*
X214160359Y-6357321D01*
X214196628Y-6366406D01*
X214231832Y-6379002D01*
X214265632Y-6394988D01*
X214297702Y-6414210D01*
X214327734Y-6436483D01*
X214355438Y-6461592D01*
X214380547Y-6489296D01*
X214402820Y-6519328D01*
X214422042Y-6551398D01*
X214438028Y-6585198D01*
X214450624Y-6620402D01*
X214459709Y-6656671D01*
X214465195Y-6693655D01*
X214467030Y-6731000D01*
X214467030Y-7493000D01*
X214465195Y-7530345D01*
X214459709Y-7567329D01*
X214450624Y-7603598D01*
X214438028Y-7638802D01*
X214422042Y-7672602D01*
X214402820Y-7704672D01*
X214380547Y-7734704D01*
X214355438Y-7762408D01*
X214327734Y-7787517D01*
X214297702Y-7809790D01*
X214265632Y-7829012D01*
X214231832Y-7844998D01*
X214196628Y-7857594D01*
X214160359Y-7866679D01*
X214123375Y-7872165D01*
X214086030Y-7874000D01*
X213324030Y-7874000D01*
X213286685Y-7872165D01*
X213249701Y-7866679D01*
X213213432Y-7857594D01*
X213178228Y-7844998D01*
X213144428Y-7829012D01*
X213112358Y-7809790D01*
X213082326Y-7787517D01*
X213054622Y-7762408D01*
X213029513Y-7734704D01*
X213007240Y-7704672D01*
X212988018Y-7672602D01*
X212972032Y-7638802D01*
X212959436Y-7603598D01*
X212950351Y-7567329D01*
X212944865Y-7530345D01*
X212943030Y-7493000D01*
X212943030Y-6731000D01*
X212944865Y-6693655D01*
X212950351Y-6656671D01*
X212959436Y-6620402D01*
X212972032Y-6585198D01*
X212988018Y-6551398D01*
X213007240Y-6519328D01*
X213029513Y-6489296D01*
X213054622Y-6461592D01*
X213082326Y-6436483D01*
X213112358Y-6414210D01*
X213144428Y-6394988D01*
X213178228Y-6379002D01*
X213213432Y-6366406D01*
X213249701Y-6357321D01*
X213286685Y-6351835D01*
X213324030Y-6350000D01*
X214086030Y-6350000D01*
X214123375Y-6351835D01*
X214123375Y-6351835D01*
G37*
D25*
G04 #@! TD*
G04 #@! TO.P,SW10,2*
G04 #@! TO.N,Net-(J22-Pad2)*
X213705030Y-7112000D03*
D24*
G04 #@! TO.N,Net-(J22-Pad1)*
G04 #@! TO.C,SW10*
G36*
X211623375Y-6351835D02*
X211660359Y-6357321D01*
X211696628Y-6366406D01*
X211731832Y-6379002D01*
X211765632Y-6394988D01*
X211797702Y-6414210D01*
X211827734Y-6436483D01*
X211855438Y-6461592D01*
X211880547Y-6489296D01*
X211902820Y-6519328D01*
X211922042Y-6551398D01*
X211938028Y-6585198D01*
X211950624Y-6620402D01*
X211959709Y-6656671D01*
X211965195Y-6693655D01*
X211967030Y-6731000D01*
X211967030Y-7493000D01*
X211965195Y-7530345D01*
X211959709Y-7567329D01*
X211950624Y-7603598D01*
X211938028Y-7638802D01*
X211922042Y-7672602D01*
X211902820Y-7704672D01*
X211880547Y-7734704D01*
X211855438Y-7762408D01*
X211827734Y-7787517D01*
X211797702Y-7809790D01*
X211765632Y-7829012D01*
X211731832Y-7844998D01*
X211696628Y-7857594D01*
X211660359Y-7866679D01*
X211623375Y-7872165D01*
X211586030Y-7874000D01*
X210824030Y-7874000D01*
X210786685Y-7872165D01*
X210749701Y-7866679D01*
X210713432Y-7857594D01*
X210678228Y-7844998D01*
X210644428Y-7829012D01*
X210612358Y-7809790D01*
X210582326Y-7787517D01*
X210554622Y-7762408D01*
X210529513Y-7734704D01*
X210507240Y-7704672D01*
X210488018Y-7672602D01*
X210472032Y-7638802D01*
X210459436Y-7603598D01*
X210450351Y-7567329D01*
X210444865Y-7530345D01*
X210443030Y-7493000D01*
X210443030Y-6731000D01*
X210444865Y-6693655D01*
X210450351Y-6656671D01*
X210459436Y-6620402D01*
X210472032Y-6585198D01*
X210488018Y-6551398D01*
X210507240Y-6519328D01*
X210529513Y-6489296D01*
X210554622Y-6461592D01*
X210582326Y-6436483D01*
X210612358Y-6414210D01*
X210644428Y-6394988D01*
X210678228Y-6379002D01*
X210713432Y-6366406D01*
X210749701Y-6357321D01*
X210786685Y-6351835D01*
X210824030Y-6350000D01*
X211586030Y-6350000D01*
X211623375Y-6351835D01*
X211623375Y-6351835D01*
G37*
D25*
G04 #@! TD*
G04 #@! TO.P,SW10,1*
G04 #@! TO.N,Net-(J22-Pad1)*
X211205030Y-7112000D03*
D24*
G04 #@! TO.N,Net-(R20-Pad2)*
G04 #@! TO.C,SW11*
G36*
X272209145Y-81993035D02*
X272246129Y-81998521D01*
X272282398Y-82007606D01*
X272317602Y-82020202D01*
X272351402Y-82036188D01*
X272383472Y-82055410D01*
X272413504Y-82077683D01*
X272441208Y-82102792D01*
X272466317Y-82130496D01*
X272488590Y-82160528D01*
X272507812Y-82192598D01*
X272523798Y-82226398D01*
X272536394Y-82261602D01*
X272545479Y-82297871D01*
X272550965Y-82334855D01*
X272552800Y-82372200D01*
X272552800Y-83134200D01*
X272550965Y-83171545D01*
X272545479Y-83208529D01*
X272536394Y-83244798D01*
X272523798Y-83280002D01*
X272507812Y-83313802D01*
X272488590Y-83345872D01*
X272466317Y-83375904D01*
X272441208Y-83403608D01*
X272413504Y-83428717D01*
X272383472Y-83450990D01*
X272351402Y-83470212D01*
X272317602Y-83486198D01*
X272282398Y-83498794D01*
X272246129Y-83507879D01*
X272209145Y-83513365D01*
X272171800Y-83515200D01*
X271409800Y-83515200D01*
X271372455Y-83513365D01*
X271335471Y-83507879D01*
X271299202Y-83498794D01*
X271263998Y-83486198D01*
X271230198Y-83470212D01*
X271198128Y-83450990D01*
X271168096Y-83428717D01*
X271140392Y-83403608D01*
X271115283Y-83375904D01*
X271093010Y-83345872D01*
X271073788Y-83313802D01*
X271057802Y-83280002D01*
X271045206Y-83244798D01*
X271036121Y-83208529D01*
X271030635Y-83171545D01*
X271028800Y-83134200D01*
X271028800Y-82372200D01*
X271030635Y-82334855D01*
X271036121Y-82297871D01*
X271045206Y-82261602D01*
X271057802Y-82226398D01*
X271073788Y-82192598D01*
X271093010Y-82160528D01*
X271115283Y-82130496D01*
X271140392Y-82102792D01*
X271168096Y-82077683D01*
X271198128Y-82055410D01*
X271230198Y-82036188D01*
X271263998Y-82020202D01*
X271299202Y-82007606D01*
X271335471Y-81998521D01*
X271372455Y-81993035D01*
X271409800Y-81991200D01*
X272171800Y-81991200D01*
X272209145Y-81993035D01*
X272209145Y-81993035D01*
G37*
D25*
G04 #@! TD*
G04 #@! TO.P,SW11,3*
G04 #@! TO.N,Net-(R20-Pad2)*
X271790800Y-82753200D03*
D24*
G04 #@! TO.N,Net-(C13-Pad2)*
G04 #@! TO.C,SW11*
G36*
X269709145Y-81993035D02*
X269746129Y-81998521D01*
X269782398Y-82007606D01*
X269817602Y-82020202D01*
X269851402Y-82036188D01*
X269883472Y-82055410D01*
X269913504Y-82077683D01*
X269941208Y-82102792D01*
X269966317Y-82130496D01*
X269988590Y-82160528D01*
X270007812Y-82192598D01*
X270023798Y-82226398D01*
X270036394Y-82261602D01*
X270045479Y-82297871D01*
X270050965Y-82334855D01*
X270052800Y-82372200D01*
X270052800Y-83134200D01*
X270050965Y-83171545D01*
X270045479Y-83208529D01*
X270036394Y-83244798D01*
X270023798Y-83280002D01*
X270007812Y-83313802D01*
X269988590Y-83345872D01*
X269966317Y-83375904D01*
X269941208Y-83403608D01*
X269913504Y-83428717D01*
X269883472Y-83450990D01*
X269851402Y-83470212D01*
X269817602Y-83486198D01*
X269782398Y-83498794D01*
X269746129Y-83507879D01*
X269709145Y-83513365D01*
X269671800Y-83515200D01*
X268909800Y-83515200D01*
X268872455Y-83513365D01*
X268835471Y-83507879D01*
X268799202Y-83498794D01*
X268763998Y-83486198D01*
X268730198Y-83470212D01*
X268698128Y-83450990D01*
X268668096Y-83428717D01*
X268640392Y-83403608D01*
X268615283Y-83375904D01*
X268593010Y-83345872D01*
X268573788Y-83313802D01*
X268557802Y-83280002D01*
X268545206Y-83244798D01*
X268536121Y-83208529D01*
X268530635Y-83171545D01*
X268528800Y-83134200D01*
X268528800Y-82372200D01*
X268530635Y-82334855D01*
X268536121Y-82297871D01*
X268545206Y-82261602D01*
X268557802Y-82226398D01*
X268573788Y-82192598D01*
X268593010Y-82160528D01*
X268615283Y-82130496D01*
X268640392Y-82102792D01*
X268668096Y-82077683D01*
X268698128Y-82055410D01*
X268730198Y-82036188D01*
X268763998Y-82020202D01*
X268799202Y-82007606D01*
X268835471Y-81998521D01*
X268872455Y-81993035D01*
X268909800Y-81991200D01*
X269671800Y-81991200D01*
X269709145Y-81993035D01*
X269709145Y-81993035D01*
G37*
D25*
G04 #@! TD*
G04 #@! TO.P,SW11,2*
G04 #@! TO.N,Net-(C13-Pad2)*
X269290800Y-82753200D03*
D24*
G04 #@! TO.N,TRI1*
G04 #@! TO.C,SW11*
G36*
X267209145Y-81993035D02*
X267246129Y-81998521D01*
X267282398Y-82007606D01*
X267317602Y-82020202D01*
X267351402Y-82036188D01*
X267383472Y-82055410D01*
X267413504Y-82077683D01*
X267441208Y-82102792D01*
X267466317Y-82130496D01*
X267488590Y-82160528D01*
X267507812Y-82192598D01*
X267523798Y-82226398D01*
X267536394Y-82261602D01*
X267545479Y-82297871D01*
X267550965Y-82334855D01*
X267552800Y-82372200D01*
X267552800Y-83134200D01*
X267550965Y-83171545D01*
X267545479Y-83208529D01*
X267536394Y-83244798D01*
X267523798Y-83280002D01*
X267507812Y-83313802D01*
X267488590Y-83345872D01*
X267466317Y-83375904D01*
X267441208Y-83403608D01*
X267413504Y-83428717D01*
X267383472Y-83450990D01*
X267351402Y-83470212D01*
X267317602Y-83486198D01*
X267282398Y-83498794D01*
X267246129Y-83507879D01*
X267209145Y-83513365D01*
X267171800Y-83515200D01*
X266409800Y-83515200D01*
X266372455Y-83513365D01*
X266335471Y-83507879D01*
X266299202Y-83498794D01*
X266263998Y-83486198D01*
X266230198Y-83470212D01*
X266198128Y-83450990D01*
X266168096Y-83428717D01*
X266140392Y-83403608D01*
X266115283Y-83375904D01*
X266093010Y-83345872D01*
X266073788Y-83313802D01*
X266057802Y-83280002D01*
X266045206Y-83244798D01*
X266036121Y-83208529D01*
X266030635Y-83171545D01*
X266028800Y-83134200D01*
X266028800Y-82372200D01*
X266030635Y-82334855D01*
X266036121Y-82297871D01*
X266045206Y-82261602D01*
X266057802Y-82226398D01*
X266073788Y-82192598D01*
X266093010Y-82160528D01*
X266115283Y-82130496D01*
X266140392Y-82102792D01*
X266168096Y-82077683D01*
X266198128Y-82055410D01*
X266230198Y-82036188D01*
X266263998Y-82020202D01*
X266299202Y-82007606D01*
X266335471Y-81998521D01*
X266372455Y-81993035D01*
X266409800Y-81991200D01*
X267171800Y-81991200D01*
X267209145Y-81993035D01*
X267209145Y-81993035D01*
G37*
D25*
G04 #@! TD*
G04 #@! TO.P,SW11,1*
G04 #@! TO.N,TRI1*
X266790800Y-82753200D03*
D24*
G04 #@! TO.N,Net-(J19-Pad1)*
G04 #@! TO.C,SW8*
G36*
X211623375Y-13311435D02*
X211660359Y-13316921D01*
X211696628Y-13326006D01*
X211731832Y-13338602D01*
X211765632Y-13354588D01*
X211797702Y-13373810D01*
X211827734Y-13396083D01*
X211855438Y-13421192D01*
X211880547Y-13448896D01*
X211902820Y-13478928D01*
X211922042Y-13510998D01*
X211938028Y-13544798D01*
X211950624Y-13580002D01*
X211959709Y-13616271D01*
X211965195Y-13653255D01*
X211967030Y-13690600D01*
X211967030Y-14452600D01*
X211965195Y-14489945D01*
X211959709Y-14526929D01*
X211950624Y-14563198D01*
X211938028Y-14598402D01*
X211922042Y-14632202D01*
X211902820Y-14664272D01*
X211880547Y-14694304D01*
X211855438Y-14722008D01*
X211827734Y-14747117D01*
X211797702Y-14769390D01*
X211765632Y-14788612D01*
X211731832Y-14804598D01*
X211696628Y-14817194D01*
X211660359Y-14826279D01*
X211623375Y-14831765D01*
X211586030Y-14833600D01*
X210824030Y-14833600D01*
X210786685Y-14831765D01*
X210749701Y-14826279D01*
X210713432Y-14817194D01*
X210678228Y-14804598D01*
X210644428Y-14788612D01*
X210612358Y-14769390D01*
X210582326Y-14747117D01*
X210554622Y-14722008D01*
X210529513Y-14694304D01*
X210507240Y-14664272D01*
X210488018Y-14632202D01*
X210472032Y-14598402D01*
X210459436Y-14563198D01*
X210450351Y-14526929D01*
X210444865Y-14489945D01*
X210443030Y-14452600D01*
X210443030Y-13690600D01*
X210444865Y-13653255D01*
X210450351Y-13616271D01*
X210459436Y-13580002D01*
X210472032Y-13544798D01*
X210488018Y-13510998D01*
X210507240Y-13478928D01*
X210529513Y-13448896D01*
X210554622Y-13421192D01*
X210582326Y-13396083D01*
X210612358Y-13373810D01*
X210644428Y-13354588D01*
X210678228Y-13338602D01*
X210713432Y-13326006D01*
X210749701Y-13316921D01*
X210786685Y-13311435D01*
X210824030Y-13309600D01*
X211586030Y-13309600D01*
X211623375Y-13311435D01*
X211623375Y-13311435D01*
G37*
D25*
G04 #@! TD*
G04 #@! TO.P,SW8,1*
G04 #@! TO.N,Net-(J19-Pad1)*
X211205030Y-14071600D03*
D24*
G04 #@! TO.N,Net-(J19-Pad2)*
G04 #@! TO.C,SW8*
G36*
X214123375Y-13311435D02*
X214160359Y-13316921D01*
X214196628Y-13326006D01*
X214231832Y-13338602D01*
X214265632Y-13354588D01*
X214297702Y-13373810D01*
X214327734Y-13396083D01*
X214355438Y-13421192D01*
X214380547Y-13448896D01*
X214402820Y-13478928D01*
X214422042Y-13510998D01*
X214438028Y-13544798D01*
X214450624Y-13580002D01*
X214459709Y-13616271D01*
X214465195Y-13653255D01*
X214467030Y-13690600D01*
X214467030Y-14452600D01*
X214465195Y-14489945D01*
X214459709Y-14526929D01*
X214450624Y-14563198D01*
X214438028Y-14598402D01*
X214422042Y-14632202D01*
X214402820Y-14664272D01*
X214380547Y-14694304D01*
X214355438Y-14722008D01*
X214327734Y-14747117D01*
X214297702Y-14769390D01*
X214265632Y-14788612D01*
X214231832Y-14804598D01*
X214196628Y-14817194D01*
X214160359Y-14826279D01*
X214123375Y-14831765D01*
X214086030Y-14833600D01*
X213324030Y-14833600D01*
X213286685Y-14831765D01*
X213249701Y-14826279D01*
X213213432Y-14817194D01*
X213178228Y-14804598D01*
X213144428Y-14788612D01*
X213112358Y-14769390D01*
X213082326Y-14747117D01*
X213054622Y-14722008D01*
X213029513Y-14694304D01*
X213007240Y-14664272D01*
X212988018Y-14632202D01*
X212972032Y-14598402D01*
X212959436Y-14563198D01*
X212950351Y-14526929D01*
X212944865Y-14489945D01*
X212943030Y-14452600D01*
X212943030Y-13690600D01*
X212944865Y-13653255D01*
X212950351Y-13616271D01*
X212959436Y-13580002D01*
X212972032Y-13544798D01*
X212988018Y-13510998D01*
X213007240Y-13478928D01*
X213029513Y-13448896D01*
X213054622Y-13421192D01*
X213082326Y-13396083D01*
X213112358Y-13373810D01*
X213144428Y-13354588D01*
X213178228Y-13338602D01*
X213213432Y-13326006D01*
X213249701Y-13316921D01*
X213286685Y-13311435D01*
X213324030Y-13309600D01*
X214086030Y-13309600D01*
X214123375Y-13311435D01*
X214123375Y-13311435D01*
G37*
D25*
G04 #@! TD*
G04 #@! TO.P,SW8,2*
G04 #@! TO.N,Net-(J19-Pad2)*
X213705030Y-14071600D03*
D24*
G04 #@! TO.N,Net-(J19-Pad3)*
G04 #@! TO.C,SW8*
G36*
X216623375Y-13311435D02*
X216660359Y-13316921D01*
X216696628Y-13326006D01*
X216731832Y-13338602D01*
X216765632Y-13354588D01*
X216797702Y-13373810D01*
X216827734Y-13396083D01*
X216855438Y-13421192D01*
X216880547Y-13448896D01*
X216902820Y-13478928D01*
X216922042Y-13510998D01*
X216938028Y-13544798D01*
X216950624Y-13580002D01*
X216959709Y-13616271D01*
X216965195Y-13653255D01*
X216967030Y-13690600D01*
X216967030Y-14452600D01*
X216965195Y-14489945D01*
X216959709Y-14526929D01*
X216950624Y-14563198D01*
X216938028Y-14598402D01*
X216922042Y-14632202D01*
X216902820Y-14664272D01*
X216880547Y-14694304D01*
X216855438Y-14722008D01*
X216827734Y-14747117D01*
X216797702Y-14769390D01*
X216765632Y-14788612D01*
X216731832Y-14804598D01*
X216696628Y-14817194D01*
X216660359Y-14826279D01*
X216623375Y-14831765D01*
X216586030Y-14833600D01*
X215824030Y-14833600D01*
X215786685Y-14831765D01*
X215749701Y-14826279D01*
X215713432Y-14817194D01*
X215678228Y-14804598D01*
X215644428Y-14788612D01*
X215612358Y-14769390D01*
X215582326Y-14747117D01*
X215554622Y-14722008D01*
X215529513Y-14694304D01*
X215507240Y-14664272D01*
X215488018Y-14632202D01*
X215472032Y-14598402D01*
X215459436Y-14563198D01*
X215450351Y-14526929D01*
X215444865Y-14489945D01*
X215443030Y-14452600D01*
X215443030Y-13690600D01*
X215444865Y-13653255D01*
X215450351Y-13616271D01*
X215459436Y-13580002D01*
X215472032Y-13544798D01*
X215488018Y-13510998D01*
X215507240Y-13478928D01*
X215529513Y-13448896D01*
X215554622Y-13421192D01*
X215582326Y-13396083D01*
X215612358Y-13373810D01*
X215644428Y-13354588D01*
X215678228Y-13338602D01*
X215713432Y-13326006D01*
X215749701Y-13316921D01*
X215786685Y-13311435D01*
X215824030Y-13309600D01*
X216586030Y-13309600D01*
X216623375Y-13311435D01*
X216623375Y-13311435D01*
G37*
D25*
G04 #@! TD*
G04 #@! TO.P,SW8,3*
G04 #@! TO.N,Net-(J19-Pad3)*
X216205030Y-14071600D03*
D24*
G04 #@! TO.N,Net-(J18-Pad3)*
G04 #@! TO.C,SW7*
G36*
X205598975Y-13311435D02*
X205635959Y-13316921D01*
X205672228Y-13326006D01*
X205707432Y-13338602D01*
X205741232Y-13354588D01*
X205773302Y-13373810D01*
X205803334Y-13396083D01*
X205831038Y-13421192D01*
X205856147Y-13448896D01*
X205878420Y-13478928D01*
X205897642Y-13510998D01*
X205913628Y-13544798D01*
X205926224Y-13580002D01*
X205935309Y-13616271D01*
X205940795Y-13653255D01*
X205942630Y-13690600D01*
X205942630Y-14452600D01*
X205940795Y-14489945D01*
X205935309Y-14526929D01*
X205926224Y-14563198D01*
X205913628Y-14598402D01*
X205897642Y-14632202D01*
X205878420Y-14664272D01*
X205856147Y-14694304D01*
X205831038Y-14722008D01*
X205803334Y-14747117D01*
X205773302Y-14769390D01*
X205741232Y-14788612D01*
X205707432Y-14804598D01*
X205672228Y-14817194D01*
X205635959Y-14826279D01*
X205598975Y-14831765D01*
X205561630Y-14833600D01*
X204799630Y-14833600D01*
X204762285Y-14831765D01*
X204725301Y-14826279D01*
X204689032Y-14817194D01*
X204653828Y-14804598D01*
X204620028Y-14788612D01*
X204587958Y-14769390D01*
X204557926Y-14747117D01*
X204530222Y-14722008D01*
X204505113Y-14694304D01*
X204482840Y-14664272D01*
X204463618Y-14632202D01*
X204447632Y-14598402D01*
X204435036Y-14563198D01*
X204425951Y-14526929D01*
X204420465Y-14489945D01*
X204418630Y-14452600D01*
X204418630Y-13690600D01*
X204420465Y-13653255D01*
X204425951Y-13616271D01*
X204435036Y-13580002D01*
X204447632Y-13544798D01*
X204463618Y-13510998D01*
X204482840Y-13478928D01*
X204505113Y-13448896D01*
X204530222Y-13421192D01*
X204557926Y-13396083D01*
X204587958Y-13373810D01*
X204620028Y-13354588D01*
X204653828Y-13338602D01*
X204689032Y-13326006D01*
X204725301Y-13316921D01*
X204762285Y-13311435D01*
X204799630Y-13309600D01*
X205561630Y-13309600D01*
X205598975Y-13311435D01*
X205598975Y-13311435D01*
G37*
D25*
G04 #@! TD*
G04 #@! TO.P,SW7,3*
G04 #@! TO.N,Net-(J18-Pad3)*
X205180630Y-14071600D03*
D24*
G04 #@! TO.N,Net-(J18-Pad2)*
G04 #@! TO.C,SW7*
G36*
X203098975Y-13311435D02*
X203135959Y-13316921D01*
X203172228Y-13326006D01*
X203207432Y-13338602D01*
X203241232Y-13354588D01*
X203273302Y-13373810D01*
X203303334Y-13396083D01*
X203331038Y-13421192D01*
X203356147Y-13448896D01*
X203378420Y-13478928D01*
X203397642Y-13510998D01*
X203413628Y-13544798D01*
X203426224Y-13580002D01*
X203435309Y-13616271D01*
X203440795Y-13653255D01*
X203442630Y-13690600D01*
X203442630Y-14452600D01*
X203440795Y-14489945D01*
X203435309Y-14526929D01*
X203426224Y-14563198D01*
X203413628Y-14598402D01*
X203397642Y-14632202D01*
X203378420Y-14664272D01*
X203356147Y-14694304D01*
X203331038Y-14722008D01*
X203303334Y-14747117D01*
X203273302Y-14769390D01*
X203241232Y-14788612D01*
X203207432Y-14804598D01*
X203172228Y-14817194D01*
X203135959Y-14826279D01*
X203098975Y-14831765D01*
X203061630Y-14833600D01*
X202299630Y-14833600D01*
X202262285Y-14831765D01*
X202225301Y-14826279D01*
X202189032Y-14817194D01*
X202153828Y-14804598D01*
X202120028Y-14788612D01*
X202087958Y-14769390D01*
X202057926Y-14747117D01*
X202030222Y-14722008D01*
X202005113Y-14694304D01*
X201982840Y-14664272D01*
X201963618Y-14632202D01*
X201947632Y-14598402D01*
X201935036Y-14563198D01*
X201925951Y-14526929D01*
X201920465Y-14489945D01*
X201918630Y-14452600D01*
X201918630Y-13690600D01*
X201920465Y-13653255D01*
X201925951Y-13616271D01*
X201935036Y-13580002D01*
X201947632Y-13544798D01*
X201963618Y-13510998D01*
X201982840Y-13478928D01*
X202005113Y-13448896D01*
X202030222Y-13421192D01*
X202057926Y-13396083D01*
X202087958Y-13373810D01*
X202120028Y-13354588D01*
X202153828Y-13338602D01*
X202189032Y-13326006D01*
X202225301Y-13316921D01*
X202262285Y-13311435D01*
X202299630Y-13309600D01*
X203061630Y-13309600D01*
X203098975Y-13311435D01*
X203098975Y-13311435D01*
G37*
D25*
G04 #@! TD*
G04 #@! TO.P,SW7,2*
G04 #@! TO.N,Net-(J18-Pad2)*
X202680630Y-14071600D03*
D24*
G04 #@! TO.N,Net-(J18-Pad1)*
G04 #@! TO.C,SW7*
G36*
X200598975Y-13311435D02*
X200635959Y-13316921D01*
X200672228Y-13326006D01*
X200707432Y-13338602D01*
X200741232Y-13354588D01*
X200773302Y-13373810D01*
X200803334Y-13396083D01*
X200831038Y-13421192D01*
X200856147Y-13448896D01*
X200878420Y-13478928D01*
X200897642Y-13510998D01*
X200913628Y-13544798D01*
X200926224Y-13580002D01*
X200935309Y-13616271D01*
X200940795Y-13653255D01*
X200942630Y-13690600D01*
X200942630Y-14452600D01*
X200940795Y-14489945D01*
X200935309Y-14526929D01*
X200926224Y-14563198D01*
X200913628Y-14598402D01*
X200897642Y-14632202D01*
X200878420Y-14664272D01*
X200856147Y-14694304D01*
X200831038Y-14722008D01*
X200803334Y-14747117D01*
X200773302Y-14769390D01*
X200741232Y-14788612D01*
X200707432Y-14804598D01*
X200672228Y-14817194D01*
X200635959Y-14826279D01*
X200598975Y-14831765D01*
X200561630Y-14833600D01*
X199799630Y-14833600D01*
X199762285Y-14831765D01*
X199725301Y-14826279D01*
X199689032Y-14817194D01*
X199653828Y-14804598D01*
X199620028Y-14788612D01*
X199587958Y-14769390D01*
X199557926Y-14747117D01*
X199530222Y-14722008D01*
X199505113Y-14694304D01*
X199482840Y-14664272D01*
X199463618Y-14632202D01*
X199447632Y-14598402D01*
X199435036Y-14563198D01*
X199425951Y-14526929D01*
X199420465Y-14489945D01*
X199418630Y-14452600D01*
X199418630Y-13690600D01*
X199420465Y-13653255D01*
X199425951Y-13616271D01*
X199435036Y-13580002D01*
X199447632Y-13544798D01*
X199463618Y-13510998D01*
X199482840Y-13478928D01*
X199505113Y-13448896D01*
X199530222Y-13421192D01*
X199557926Y-13396083D01*
X199587958Y-13373810D01*
X199620028Y-13354588D01*
X199653828Y-13338602D01*
X199689032Y-13326006D01*
X199725301Y-13316921D01*
X199762285Y-13311435D01*
X199799630Y-13309600D01*
X200561630Y-13309600D01*
X200598975Y-13311435D01*
X200598975Y-13311435D01*
G37*
D25*
G04 #@! TD*
G04 #@! TO.P,SW7,1*
G04 #@! TO.N,Net-(J18-Pad1)*
X200180630Y-14071600D03*
D24*
G04 #@! TO.N,Net-(J20-Pad1)*
G04 #@! TO.C,SW9*
G36*
X200598975Y-6351835D02*
X200635959Y-6357321D01*
X200672228Y-6366406D01*
X200707432Y-6379002D01*
X200741232Y-6394988D01*
X200773302Y-6414210D01*
X200803334Y-6436483D01*
X200831038Y-6461592D01*
X200856147Y-6489296D01*
X200878420Y-6519328D01*
X200897642Y-6551398D01*
X200913628Y-6585198D01*
X200926224Y-6620402D01*
X200935309Y-6656671D01*
X200940795Y-6693655D01*
X200942630Y-6731000D01*
X200942630Y-7493000D01*
X200940795Y-7530345D01*
X200935309Y-7567329D01*
X200926224Y-7603598D01*
X200913628Y-7638802D01*
X200897642Y-7672602D01*
X200878420Y-7704672D01*
X200856147Y-7734704D01*
X200831038Y-7762408D01*
X200803334Y-7787517D01*
X200773302Y-7809790D01*
X200741232Y-7829012D01*
X200707432Y-7844998D01*
X200672228Y-7857594D01*
X200635959Y-7866679D01*
X200598975Y-7872165D01*
X200561630Y-7874000D01*
X199799630Y-7874000D01*
X199762285Y-7872165D01*
X199725301Y-7866679D01*
X199689032Y-7857594D01*
X199653828Y-7844998D01*
X199620028Y-7829012D01*
X199587958Y-7809790D01*
X199557926Y-7787517D01*
X199530222Y-7762408D01*
X199505113Y-7734704D01*
X199482840Y-7704672D01*
X199463618Y-7672602D01*
X199447632Y-7638802D01*
X199435036Y-7603598D01*
X199425951Y-7567329D01*
X199420465Y-7530345D01*
X199418630Y-7493000D01*
X199418630Y-6731000D01*
X199420465Y-6693655D01*
X199425951Y-6656671D01*
X199435036Y-6620402D01*
X199447632Y-6585198D01*
X199463618Y-6551398D01*
X199482840Y-6519328D01*
X199505113Y-6489296D01*
X199530222Y-6461592D01*
X199557926Y-6436483D01*
X199587958Y-6414210D01*
X199620028Y-6394988D01*
X199653828Y-6379002D01*
X199689032Y-6366406D01*
X199725301Y-6357321D01*
X199762285Y-6351835D01*
X199799630Y-6350000D01*
X200561630Y-6350000D01*
X200598975Y-6351835D01*
X200598975Y-6351835D01*
G37*
D25*
G04 #@! TD*
G04 #@! TO.P,SW9,1*
G04 #@! TO.N,Net-(J20-Pad1)*
X200180630Y-7112000D03*
D24*
G04 #@! TO.N,Net-(J20-Pad2)*
G04 #@! TO.C,SW9*
G36*
X203098975Y-6351835D02*
X203135959Y-6357321D01*
X203172228Y-6366406D01*
X203207432Y-6379002D01*
X203241232Y-6394988D01*
X203273302Y-6414210D01*
X203303334Y-6436483D01*
X203331038Y-6461592D01*
X203356147Y-6489296D01*
X203378420Y-6519328D01*
X203397642Y-6551398D01*
X203413628Y-6585198D01*
X203426224Y-6620402D01*
X203435309Y-6656671D01*
X203440795Y-6693655D01*
X203442630Y-6731000D01*
X203442630Y-7493000D01*
X203440795Y-7530345D01*
X203435309Y-7567329D01*
X203426224Y-7603598D01*
X203413628Y-7638802D01*
X203397642Y-7672602D01*
X203378420Y-7704672D01*
X203356147Y-7734704D01*
X203331038Y-7762408D01*
X203303334Y-7787517D01*
X203273302Y-7809790D01*
X203241232Y-7829012D01*
X203207432Y-7844998D01*
X203172228Y-7857594D01*
X203135959Y-7866679D01*
X203098975Y-7872165D01*
X203061630Y-7874000D01*
X202299630Y-7874000D01*
X202262285Y-7872165D01*
X202225301Y-7866679D01*
X202189032Y-7857594D01*
X202153828Y-7844998D01*
X202120028Y-7829012D01*
X202087958Y-7809790D01*
X202057926Y-7787517D01*
X202030222Y-7762408D01*
X202005113Y-7734704D01*
X201982840Y-7704672D01*
X201963618Y-7672602D01*
X201947632Y-7638802D01*
X201935036Y-7603598D01*
X201925951Y-7567329D01*
X201920465Y-7530345D01*
X201918630Y-7493000D01*
X201918630Y-6731000D01*
X201920465Y-6693655D01*
X201925951Y-6656671D01*
X201935036Y-6620402D01*
X201947632Y-6585198D01*
X201963618Y-6551398D01*
X201982840Y-6519328D01*
X202005113Y-6489296D01*
X202030222Y-6461592D01*
X202057926Y-6436483D01*
X202087958Y-6414210D01*
X202120028Y-6394988D01*
X202153828Y-6379002D01*
X202189032Y-6366406D01*
X202225301Y-6357321D01*
X202262285Y-6351835D01*
X202299630Y-6350000D01*
X203061630Y-6350000D01*
X203098975Y-6351835D01*
X203098975Y-6351835D01*
G37*
D25*
G04 #@! TD*
G04 #@! TO.P,SW9,2*
G04 #@! TO.N,Net-(J20-Pad2)*
X202680630Y-7112000D03*
D24*
G04 #@! TO.N,Net-(J20-Pad3)*
G04 #@! TO.C,SW9*
G36*
X205598975Y-6351835D02*
X205635959Y-6357321D01*
X205672228Y-6366406D01*
X205707432Y-6379002D01*
X205741232Y-6394988D01*
X205773302Y-6414210D01*
X205803334Y-6436483D01*
X205831038Y-6461592D01*
X205856147Y-6489296D01*
X205878420Y-6519328D01*
X205897642Y-6551398D01*
X205913628Y-6585198D01*
X205926224Y-6620402D01*
X205935309Y-6656671D01*
X205940795Y-6693655D01*
X205942630Y-6731000D01*
X205942630Y-7493000D01*
X205940795Y-7530345D01*
X205935309Y-7567329D01*
X205926224Y-7603598D01*
X205913628Y-7638802D01*
X205897642Y-7672602D01*
X205878420Y-7704672D01*
X205856147Y-7734704D01*
X205831038Y-7762408D01*
X205803334Y-7787517D01*
X205773302Y-7809790D01*
X205741232Y-7829012D01*
X205707432Y-7844998D01*
X205672228Y-7857594D01*
X205635959Y-7866679D01*
X205598975Y-7872165D01*
X205561630Y-7874000D01*
X204799630Y-7874000D01*
X204762285Y-7872165D01*
X204725301Y-7866679D01*
X204689032Y-7857594D01*
X204653828Y-7844998D01*
X204620028Y-7829012D01*
X204587958Y-7809790D01*
X204557926Y-7787517D01*
X204530222Y-7762408D01*
X204505113Y-7734704D01*
X204482840Y-7704672D01*
X204463618Y-7672602D01*
X204447632Y-7638802D01*
X204435036Y-7603598D01*
X204425951Y-7567329D01*
X204420465Y-7530345D01*
X204418630Y-7493000D01*
X204418630Y-6731000D01*
X204420465Y-6693655D01*
X204425951Y-6656671D01*
X204435036Y-6620402D01*
X204447632Y-6585198D01*
X204463618Y-6551398D01*
X204482840Y-6519328D01*
X204505113Y-6489296D01*
X204530222Y-6461592D01*
X204557926Y-6436483D01*
X204587958Y-6414210D01*
X204620028Y-6394988D01*
X204653828Y-6379002D01*
X204689032Y-6366406D01*
X204725301Y-6357321D01*
X204762285Y-6351835D01*
X204799630Y-6350000D01*
X205561630Y-6350000D01*
X205598975Y-6351835D01*
X205598975Y-6351835D01*
G37*
D25*
G04 #@! TD*
G04 #@! TO.P,SW9,3*
G04 #@! TO.N,Net-(J20-Pad3)*
X205180630Y-7112000D03*
D21*
G04 #@! TO.P,SW2,1*
G04 #@! TO.N,+5V*
X257839200Y-26342800D03*
G04 #@! TO.P,SW2,2*
G04 #@! TO.N,GATE1*
X257839200Y-30842800D03*
G04 #@! TO.P,SW2,1*
G04 #@! TO.N,+5V*
X251339200Y-26342800D03*
G04 #@! TO.P,SW2,2*
G04 #@! TO.N,GATE1*
X251339200Y-30842800D03*
G04 #@! TD*
G04 #@! TO.P,SW1,2*
G04 #@! TO.N,Net-(J8-Pad2)*
X44067425Y-38702983D03*
G04 #@! TO.P,SW1,1*
G04 #@! TO.N,Net-(J8-Pad1)*
X44067425Y-34202983D03*
G04 #@! TO.P,SW1,2*
G04 #@! TO.N,Net-(J8-Pad2)*
X50567425Y-38702983D03*
G04 #@! TO.P,SW1,1*
G04 #@! TO.N,Net-(J8-Pad1)*
X50567425Y-34202983D03*
G04 #@! TD*
G04 #@! TO.P,SW6,1*
G04 #@! TO.N,Net-(J8-Pad7)*
X39289825Y-43346983D03*
G04 #@! TO.P,SW6,2*
G04 #@! TO.N,Net-(J8-Pad8)*
X39289825Y-47846983D03*
G04 #@! TO.P,SW6,1*
G04 #@! TO.N,Net-(J8-Pad7)*
X32789825Y-43346983D03*
G04 #@! TO.P,SW6,2*
G04 #@! TO.N,Net-(J8-Pad8)*
X32789825Y-47846983D03*
G04 #@! TD*
G04 #@! TO.P,SW5,2*
G04 #@! TO.N,GATE2*
X265830000Y-30741200D03*
G04 #@! TO.P,SW5,1*
G04 #@! TO.N,+5V*
X265830000Y-26241200D03*
G04 #@! TO.P,SW5,2*
G04 #@! TO.N,GATE2*
X272330000Y-30741200D03*
G04 #@! TO.P,SW5,1*
G04 #@! TO.N,+5V*
X272330000Y-26241200D03*
G04 #@! TD*
G04 #@! TO.P,SW3,1*
G04 #@! TO.N,Net-(J8-Pad3)*
X50567425Y-43211516D03*
G04 #@! TO.P,SW3,2*
G04 #@! TO.N,Net-(J8-Pad4)*
X50567425Y-47711516D03*
G04 #@! TO.P,SW3,1*
G04 #@! TO.N,Net-(J8-Pad3)*
X44067425Y-43211516D03*
G04 #@! TO.P,SW3,2*
G04 #@! TO.N,Net-(J8-Pad4)*
X44067425Y-47711516D03*
G04 #@! TD*
G04 #@! TO.P,SW4,2*
G04 #@! TO.N,Net-(J8-Pad6)*
X32789825Y-38838449D03*
G04 #@! TO.P,SW4,1*
G04 #@! TO.N,Net-(J8-Pad5)*
X32789825Y-34338449D03*
G04 #@! TO.P,SW4,2*
G04 #@! TO.N,Net-(J8-Pad6)*
X39289825Y-38838449D03*
G04 #@! TO.P,SW4,1*
G04 #@! TO.N,Net-(J8-Pad5)*
X39289825Y-34338449D03*
G04 #@! TD*
D26*
G04 #@! TO.P,C10,2*
G04 #@! TO.N,-12V*
X13258800Y-20216934D03*
D27*
G04 #@! TO.P,C10,1*
G04 #@! TO.N,GND*
X13258800Y-18216934D03*
G04 #@! TD*
G04 #@! TO.P,C9,1*
G04 #@! TO.N,+12V*
X13360400Y-13467467D03*
D26*
G04 #@! TO.P,C9,2*
G04 #@! TO.N,GND*
X13360400Y-15467467D03*
G04 #@! TD*
D16*
G04 #@! TO.P,C15,2*
G04 #@! TO.N,GND*
X255839600Y-41148000D03*
G04 #@! TO.P,C15,1*
G04 #@! TO.N,+12V*
X253339600Y-41148000D03*
G04 #@! TD*
G04 #@! TO.P,C7,1*
G04 #@! TO.N,+12V*
X12110400Y-10668000D03*
G04 #@! TO.P,C7,2*
G04 #@! TO.N,GND*
X14610400Y-10668000D03*
G04 #@! TD*
G04 #@! TO.P,C3,2*
G04 #@! TO.N,-12V*
X26822400Y-65876800D03*
G04 #@! TO.P,C3,1*
G04 #@! TO.N,GND*
X26822400Y-68376800D03*
G04 #@! TD*
G04 #@! TO.P,C4,1*
G04 #@! TO.N,+12V*
X30429200Y-68376800D03*
G04 #@! TO.P,C4,2*
G04 #@! TO.N,GND*
X30429200Y-65876800D03*
G04 #@! TD*
G04 #@! TO.P,C8,2*
G04 #@! TO.N,-12V*
X12008800Y-22961600D03*
G04 #@! TO.P,C8,1*
G04 #@! TO.N,GND*
X14508800Y-22961600D03*
G04 #@! TD*
G04 #@! TO.P,C16,1*
G04 #@! TO.N,GND*
X253695200Y-64465200D03*
G04 #@! TO.P,C16,2*
G04 #@! TO.N,-12V*
X256195200Y-64465200D03*
G04 #@! TD*
G04 #@! TO.P,C5,2*
G04 #@! TO.N,-12V*
X52679600Y-65978400D03*
G04 #@! TO.P,C5,1*
G04 #@! TO.N,GND*
X52679600Y-68478400D03*
G04 #@! TD*
G04 #@! TO.P,C2,1*
G04 #@! TO.N,+12V*
X4521200Y-68336800D03*
G04 #@! TO.P,C2,2*
G04 #@! TO.N,GND*
X4521200Y-65836800D03*
G04 #@! TD*
D20*
G04 #@! TO.P,J19,3*
G04 #@! TO.N,Net-(J19-Pad3)*
X216285030Y-27013303D03*
G04 #@! TO.P,J19,2*
G04 #@! TO.N,Net-(J19-Pad2)*
X213745030Y-27013303D03*
D19*
G04 #@! TO.P,J19,1*
G04 #@! TO.N,Net-(J19-Pad1)*
X211205030Y-27013303D03*
G04 #@! TD*
G04 #@! TO.P,J22,1*
G04 #@! TO.N,Net-(J22-Pad1)*
X211205030Y-20358503D03*
D20*
G04 #@! TO.P,J22,2*
G04 #@! TO.N,Net-(J22-Pad2)*
X213745030Y-20358503D03*
G04 #@! TO.P,J22,3*
G04 #@! TO.N,Net-(J22-Pad3)*
X216285030Y-20358503D03*
G04 #@! TD*
G04 #@! TO.P,J20,3*
G04 #@! TO.N,Net-(J20-Pad3)*
X205260630Y-20358503D03*
G04 #@! TO.P,J20,2*
G04 #@! TO.N,Net-(J20-Pad2)*
X202720630Y-20358503D03*
D19*
G04 #@! TO.P,J20,1*
G04 #@! TO.N,Net-(J20-Pad1)*
X200180630Y-20358503D03*
G04 #@! TD*
G04 #@! TO.P,J18,1*
G04 #@! TO.N,Net-(J18-Pad1)*
X200180630Y-27013303D03*
D20*
G04 #@! TO.P,J18,2*
G04 #@! TO.N,Net-(J18-Pad2)*
X202720630Y-27013303D03*
G04 #@! TO.P,J18,3*
G04 #@! TO.N,Net-(J18-Pad3)*
X205260630Y-27013303D03*
G04 #@! TD*
D19*
G04 #@! TO.P,J16,1*
G04 #@! TO.N,Net-(J16-Pad1)*
X220827600Y-41706800D03*
D20*
G04 #@! TO.P,J16,2*
G04 #@! TO.N,Net-(J16-Pad2)*
X223367600Y-41706800D03*
G04 #@! TO.P,J16,3*
G04 #@! TO.N,Net-(J16-Pad3)*
X225907600Y-41706800D03*
G04 #@! TO.P,J16,4*
G04 #@! TO.N,Net-(J16-Pad4)*
X228447600Y-41706800D03*
G04 #@! TD*
G04 #@! TO.P,J2,7*
G04 #@! TO.N,Net-(J2-Pad7)*
X8128000Y-58216800D03*
G04 #@! TO.P,J2,6*
G04 #@! TO.N,Net-(J2-Pad6)*
X10668000Y-58216800D03*
G04 #@! TO.P,J2,5*
G04 #@! TO.N,Net-(J2-Pad5)*
X13208000Y-58216800D03*
G04 #@! TO.P,J2,4*
G04 #@! TO.N,-12V*
X15748000Y-58216800D03*
G04 #@! TO.P,J2,3*
G04 #@! TO.N,Net-(J2-Pad3)*
X18288000Y-58216800D03*
G04 #@! TO.P,J2,2*
G04 #@! TO.N,Net-(J2-Pad2)*
X20828000Y-58216800D03*
D19*
G04 #@! TO.P,J2,1*
G04 #@! TO.N,Net-(J2-Pad1)*
X23368000Y-58216800D03*
G04 #@! TD*
G04 #@! TO.P,J3,1*
G04 #@! TO.N,Net-(J3-Pad1)*
X23368000Y-75438000D03*
D20*
G04 #@! TO.P,J3,2*
G04 #@! TO.N,Net-(J3-Pad2)*
X20828000Y-75438000D03*
G04 #@! TO.P,J3,3*
G04 #@! TO.N,Net-(J3-Pad3)*
X18288000Y-75438000D03*
G04 #@! TO.P,J3,4*
G04 #@! TO.N,+12V*
X15748000Y-75438000D03*
G04 #@! TO.P,J3,5*
G04 #@! TO.N,Net-(J3-Pad5)*
X13208000Y-75438000D03*
G04 #@! TO.P,J3,6*
G04 #@! TO.N,Net-(J3-Pad6)*
X10668000Y-75438000D03*
G04 #@! TO.P,J3,7*
G04 #@! TO.N,Net-(J3-Pad7)*
X8128000Y-75438000D03*
G04 #@! TD*
G04 #@! TO.P,J4,7*
G04 #@! TO.N,Net-(J4-Pad7)*
X34036774Y-58216800D03*
G04 #@! TO.P,J4,6*
G04 #@! TO.N,Net-(J4-Pad6)*
X36576774Y-58216800D03*
G04 #@! TO.P,J4,5*
G04 #@! TO.N,Net-(J4-Pad5)*
X39116774Y-58216800D03*
G04 #@! TO.P,J4,4*
G04 #@! TO.N,-12V*
X41656774Y-58216800D03*
G04 #@! TO.P,J4,3*
G04 #@! TO.N,Net-(J4-Pad3)*
X44196774Y-58216800D03*
G04 #@! TO.P,J4,2*
G04 #@! TO.N,Net-(J4-Pad2)*
X46736774Y-58216800D03*
D19*
G04 #@! TO.P,J4,1*
G04 #@! TO.N,Net-(J4-Pad1)*
X49276774Y-58216800D03*
G04 #@! TD*
G04 #@! TO.P,J5,1*
G04 #@! TO.N,Net-(J5-Pad1)*
X49276774Y-75438000D03*
D20*
G04 #@! TO.P,J5,2*
G04 #@! TO.N,Net-(J5-Pad2)*
X46736774Y-75438000D03*
G04 #@! TO.P,J5,3*
G04 #@! TO.N,Net-(J5-Pad3)*
X44196774Y-75438000D03*
G04 #@! TO.P,J5,4*
G04 #@! TO.N,+12V*
X41656774Y-75438000D03*
G04 #@! TO.P,J5,5*
G04 #@! TO.N,Net-(J5-Pad5)*
X39116774Y-75438000D03*
G04 #@! TO.P,J5,6*
G04 #@! TO.N,Net-(J5-Pad6)*
X36576774Y-75438000D03*
G04 #@! TO.P,J5,7*
G04 #@! TO.N,Net-(J5-Pad7)*
X34036774Y-75438000D03*
G04 #@! TD*
G04 #@! TO.P,J8,8*
G04 #@! TO.N,Net-(J8-Pad8)*
X63246000Y-55219600D03*
G04 #@! TO.P,J8,7*
G04 #@! TO.N,Net-(J8-Pad7)*
X63246000Y-52679600D03*
G04 #@! TO.P,J8,6*
G04 #@! TO.N,Net-(J8-Pad6)*
X63246000Y-50139600D03*
G04 #@! TO.P,J8,5*
G04 #@! TO.N,Net-(J8-Pad5)*
X63246000Y-47599600D03*
G04 #@! TO.P,J8,4*
G04 #@! TO.N,Net-(J8-Pad4)*
X63246000Y-45059600D03*
G04 #@! TO.P,J8,3*
G04 #@! TO.N,Net-(J8-Pad3)*
X63246000Y-42519600D03*
G04 #@! TO.P,J8,2*
G04 #@! TO.N,Net-(J8-Pad2)*
X63246000Y-39979600D03*
D19*
G04 #@! TO.P,J8,1*
G04 #@! TO.N,Net-(J8-Pad1)*
X63246000Y-37439600D03*
G04 #@! TD*
G04 #@! TO.P,J11,1*
G04 #@! TO.N,Net-(J11-Pad1)*
X196342000Y-42062400D03*
D20*
G04 #@! TO.P,J11,2*
G04 #@! TO.N,Net-(J11-Pad2)*
X198882000Y-42062400D03*
G04 #@! TO.P,J11,3*
G04 #@! TO.N,Net-(J11-Pad3)*
X201422000Y-42062400D03*
G04 #@! TO.P,J11,4*
G04 #@! TO.N,Net-(J10-PadT)*
X203962000Y-42062400D03*
G04 #@! TO.P,J11,5*
G04 #@! TO.N,Net-(J11-Pad5)*
X206502000Y-42062400D03*
G04 #@! TO.P,J11,6*
G04 #@! TO.N,Net-(J11-Pad6)*
X209042000Y-42062400D03*
G04 #@! TO.P,J11,7*
G04 #@! TO.N,Net-(J11-Pad7)*
X211582000Y-42062400D03*
G04 #@! TO.P,J11,8*
G04 #@! TO.N,Net-(J11-Pad8)*
X214122000Y-42062400D03*
G04 #@! TD*
D32*
G04 #@! TO.P,D6,1*
G04 #@! TO.N,Net-(D6-Pad1)*
X43535600Y-24460200D03*
D33*
G04 #@! TO.P,D6,2*
G04 #@! TO.N,Net-(D6-Pad2)*
X35915600Y-24460200D03*
G04 #@! TD*
D34*
G04 #@! TO.P,D2,1*
G04 #@! TO.N,GND*
X238864391Y-17627600D03*
D35*
G04 #@! TO.P,D2,2*
G04 #@! TO.N,Net-(D2-Pad2)*
X236324391Y-17627600D03*
G04 #@! TD*
G04 #@! TO.P,D3,2*
G04 #@! TO.N,Net-(D3-Pad2)*
X242979191Y-17627600D03*
D34*
G04 #@! TO.P,D3,1*
G04 #@! TO.N,GND*
X245519191Y-17627600D03*
G04 #@! TD*
G04 #@! TO.P,D4,1*
G04 #@! TO.N,GND*
X238864391Y-25135831D03*
D35*
G04 #@! TO.P,D4,2*
G04 #@! TO.N,Net-(D4-Pad2)*
X236324391Y-25135831D03*
G04 #@! TD*
G04 #@! TO.P,D1,2*
G04 #@! TO.N,+12V*
X13411200Y-3657600D03*
D34*
G04 #@! TO.P,D1,1*
G04 #@! TO.N,Net-(D1-Pad1)*
X13411200Y-6197600D03*
G04 #@! TD*
G04 #@! TO.P,D5,1*
G04 #@! TO.N,GND*
X245519191Y-25135831D03*
D35*
G04 #@! TO.P,D5,2*
G04 #@! TO.N,Net-(D5-Pad2)*
X242979191Y-25135831D03*
G04 #@! TD*
D14*
G04 #@! TO.P,U6,1*
G04 #@! TO.N,SQR2*
X251002800Y-45161200D03*
D15*
G04 #@! TO.P,U6,8*
G04 #@! TO.N,SQR1*
X258622800Y-60401200D03*
G04 #@! TO.P,U6,2*
G04 #@! TO.N,GND*
X251002800Y-47701200D03*
G04 #@! TO.P,U6,9*
X258622800Y-57861200D03*
G04 #@! TO.P,U6,3*
G04 #@! TO.N,Net-(R15-Pad2)*
X251002800Y-50241200D03*
G04 #@! TO.P,U6,10*
G04 #@! TO.N,Net-(R14-Pad2)*
X258622800Y-55321200D03*
G04 #@! TO.P,U6,4*
G04 #@! TO.N,+12V*
X251002800Y-52781200D03*
G04 #@! TO.P,U6,11*
G04 #@! TO.N,-12V*
X258622800Y-52781200D03*
G04 #@! TO.P,U6,5*
G04 #@! TO.N,GND*
X251002800Y-55321200D03*
G04 #@! TO.P,U6,12*
X258622800Y-50241200D03*
G04 #@! TO.P,U6,6*
G04 #@! TO.N,Net-(C12-Pad2)*
X251002800Y-57861200D03*
G04 #@! TO.P,U6,13*
G04 #@! TO.N,Net-(C11-Pad2)*
X258622800Y-47701200D03*
G04 #@! TO.P,U6,7*
G04 #@! TO.N,TRI2*
X251002800Y-60401200D03*
G04 #@! TO.P,U6,14*
G04 #@! TO.N,TRI1*
X258622800Y-45161200D03*
G04 #@! TD*
D32*
G04 #@! TO.P,U5,1*
G04 #@! TO.N,Net-(U5-Pad1)*
X22809200Y-20828000D03*
D33*
G04 #@! TO.P,U5,5*
G04 #@! TO.N,GND*
X30429200Y-28448000D03*
G04 #@! TO.P,U5,2*
G04 #@! TO.N,Net-(D6-Pad1)*
X22809200Y-23368000D03*
G04 #@! TO.P,U5,6*
G04 #@! TO.N,MIDI_RX*
X30429200Y-25908000D03*
G04 #@! TO.P,U5,3*
G04 #@! TO.N,Net-(D6-Pad2)*
X22809200Y-25908000D03*
G04 #@! TO.P,U5,7*
G04 #@! TO.N,Net-(U5-Pad7)*
X30429200Y-23368000D03*
G04 #@! TO.P,U5,4*
G04 #@! TO.N,Net-(U5-Pad4)*
X22809200Y-28448000D03*
G04 #@! TO.P,U5,8*
G04 #@! TO.N,+5V*
X30429200Y-20828000D03*
G04 #@! TD*
D36*
G04 #@! TO.P,U1,1*
G04 #@! TO.N,GND*
X9347200Y-30226000D03*
D37*
G04 #@! TO.P,U1,2*
G04 #@! TO.N,+5V*
X6807200Y-30226000D03*
G04 #@! TO.P,U1,3*
G04 #@! TO.N,+12V*
X4267200Y-30226000D03*
G04 #@! TD*
D16*
G04 #@! TO.P,R5,1*
G04 #@! TO.N,Net-(D3-Pad2)*
X232463591Y-20140497D03*
D33*
G04 #@! TO.P,R5,2*
G04 #@! TO.N,Net-(J16-Pad2)*
X224843591Y-20140497D03*
G04 #@! TD*
G04 #@! TO.P,R7,2*
G04 #@! TO.N,Net-(J16-Pad4)*
X224843591Y-27218631D03*
D16*
G04 #@! TO.P,R7,1*
G04 #@! TO.N,Net-(D5-Pad2)*
X232463591Y-27218631D03*
G04 #@! TD*
G04 #@! TO.P,R10,1*
G04 #@! TO.N,+5V*
X70866000Y-26670000D03*
D33*
G04 #@! TO.P,R10,2*
G04 #@! TO.N,Net-(R10-Pad2)*
X63246000Y-26670000D03*
G04 #@! TD*
G04 #@! TO.P,R11,2*
G04 #@! TO.N,Net-(J21-Pad4)*
X63246000Y-19456400D03*
D16*
G04 #@! TO.P,R11,1*
G04 #@! TO.N,+5V*
X70866000Y-19456400D03*
G04 #@! TD*
G04 #@! TO.P,R12,1*
G04 #@! TO.N,+5V*
X43535600Y-28498800D03*
D33*
G04 #@! TO.P,R12,2*
G04 #@! TO.N,MIDI_RX*
X35915600Y-28498800D03*
G04 #@! TD*
G04 #@! TO.P,R14,2*
G04 #@! TO.N,Net-(R14-Pad2)*
X273304000Y-49108048D03*
D16*
G04 #@! TO.P,R14,1*
G04 #@! TO.N,TRI1*
X265684000Y-49108048D03*
G04 #@! TD*
G04 #@! TO.P,R15,1*
G04 #@! TO.N,TRI2*
X265684000Y-66798888D03*
D33*
G04 #@! TO.P,R15,2*
G04 #@! TO.N,Net-(R15-Pad2)*
X273304000Y-66798888D03*
G04 #@! TD*
G04 #@! TO.P,R16,2*
G04 #@! TO.N,Net-(R14-Pad2)*
X273304000Y-53530758D03*
D16*
G04 #@! TO.P,R16,1*
G04 #@! TO.N,SQR1*
X265684000Y-53530758D03*
G04 #@! TD*
G04 #@! TO.P,R17,1*
G04 #@! TO.N,SQR2*
X265684000Y-57953468D03*
D33*
G04 #@! TO.P,R17,2*
G04 #@! TO.N,Net-(R15-Pad2)*
X273304000Y-57953468D03*
G04 #@! TD*
G04 #@! TO.P,R18,2*
G04 #@! TO.N,SQR1*
X273304000Y-44685338D03*
D16*
G04 #@! TO.P,R18,1*
G04 #@! TO.N,Net-(R18-Pad1)*
X265684000Y-44685338D03*
G04 #@! TD*
G04 #@! TO.P,R19,1*
G04 #@! TO.N,Net-(R19-Pad1)*
X265684000Y-40262628D03*
D33*
G04 #@! TO.P,R19,2*
G04 #@! TO.N,SQR2*
X273304000Y-40262628D03*
G04 #@! TD*
G04 #@! TO.P,R20,2*
G04 #@! TO.N,Net-(R20-Pad2)*
X265684000Y-62376178D03*
D16*
G04 #@! TO.P,R20,1*
G04 #@! TO.N,GND*
X273304000Y-62376178D03*
G04 #@! TD*
G04 #@! TO.P,R21,1*
G04 #@! TO.N,GND*
X273354800Y-71221600D03*
D33*
G04 #@! TO.P,R21,2*
G04 #@! TO.N,Net-(R21-Pad2)*
X265734800Y-71221600D03*
G04 #@! TD*
G04 #@! TO.P,R8,2*
G04 #@! TO.N,Net-(J17-Pad4)*
X35915600Y-20421600D03*
D16*
G04 #@! TO.P,R8,1*
G04 #@! TO.N,Net-(D6-Pad1)*
X43535600Y-20421600D03*
G04 #@! TD*
G04 #@! TO.P,R6,1*
G04 #@! TO.N,Net-(D4-Pad2)*
X232463591Y-23679563D03*
D33*
G04 #@! TO.P,R6,2*
G04 #@! TO.N,Net-(J16-Pad3)*
X224843591Y-23679563D03*
G04 #@! TD*
G04 #@! TO.P,R4,2*
G04 #@! TO.N,Net-(J16-Pad1)*
X224843591Y-16601431D03*
D16*
G04 #@! TO.P,R4,1*
G04 #@! TO.N,Net-(D2-Pad2)*
X232463591Y-16601431D03*
G04 #@! TD*
G04 #@! TO.P,R1,1*
G04 #@! TO.N,GND*
X19202400Y-18084800D03*
D33*
G04 #@! TO.P,R1,2*
G04 #@! TO.N,Net-(D1-Pad1)*
X19202400Y-10464800D03*
G04 #@! TD*
G04 #@! TO.P,R3,2*
G04 #@! TO.N,GND*
X272890000Y-34442400D03*
D16*
G04 #@! TO.P,R3,1*
G04 #@! TO.N,GATE2*
X265270000Y-34442400D03*
G04 #@! TD*
G04 #@! TO.P,R9,1*
G04 #@! TO.N,+5V*
X70866000Y-23063200D03*
D33*
G04 #@! TO.P,R9,2*
G04 #@! TO.N,Net-(R13-Pad1)*
X63246000Y-23063200D03*
G04 #@! TD*
G04 #@! TO.P,R2,2*
G04 #@! TO.N,GND*
X258399200Y-34544000D03*
D16*
G04 #@! TO.P,R2,1*
G04 #@! TO.N,GATE1*
X250779200Y-34544000D03*
G04 #@! TD*
G04 #@! TO.P,R13,1*
G04 #@! TO.N,Net-(R13-Pad1)*
X63246000Y-30276800D03*
D33*
G04 #@! TO.P,R13,2*
G04 #@! TO.N,Net-(J21-Pad5)*
X70866000Y-30276800D03*
G04 #@! TD*
D20*
G04 #@! TO.P,J1,6*
G04 #@! TO.N,-12V*
X6756400Y-23266400D03*
G04 #@! TO.P,J1,2*
G04 #@! TO.N,GND*
X4216400Y-15646400D03*
G04 #@! TO.P,J1,8*
X6756400Y-18186400D03*
G04 #@! TO.P,J1,7*
X6756400Y-20726400D03*
G04 #@! TO.P,J1,10*
G04 #@! TO.N,+12V*
X6756400Y-13106400D03*
G04 #@! TO.P,J1,5*
G04 #@! TO.N,-12V*
X4216400Y-23266400D03*
G04 #@! TO.P,J1,4*
G04 #@! TO.N,GND*
X4216400Y-20726400D03*
G04 #@! TO.P,J1,3*
X4216400Y-18186400D03*
G04 #@! TO.P,J1,9*
X6756400Y-15646400D03*
D19*
G04 #@! TO.P,J1,1*
G04 #@! TO.N,+12V*
X4216400Y-13106400D03*
G04 #@! TD*
D38*
G04 #@! TO.P,J17,*
G04 #@! TO.N,*
X37919660Y-3517900D03*
X27917140Y-3517900D03*
G04 #@! TO.P,J17,5*
G04 #@! TO.N,Net-(D6-Pad2)*
X37914580Y-16014700D03*
G04 #@! TO.P,J17,1*
G04 #@! TO.N,Net-(J17-Pad1)*
X25420320Y-13512800D03*
G04 #@! TO.P,J17,2*
G04 #@! TO.N,Net-(J17-Pad2)*
X32918400Y-13515340D03*
G04 #@! TO.P,J17,4*
G04 #@! TO.N,Net-(J17-Pad4)*
X27922220Y-16014700D03*
G04 #@! TO.P,J17,3*
G04 #@! TO.N,Net-(J17-Pad3)*
X40416480Y-13512800D03*
G04 #@! TD*
G04 #@! TO.P,J21,3*
G04 #@! TO.N,Net-(J21-Pad3)*
X61193680Y-13766800D03*
G04 #@! TO.P,J21,4*
G04 #@! TO.N,Net-(J21-Pad4)*
X48699420Y-16268700D03*
G04 #@! TO.P,J21,2*
G04 #@! TO.N,Net-(J21-Pad2)*
X53695600Y-13769340D03*
G04 #@! TO.P,J21,1*
G04 #@! TO.N,Net-(J21-Pad1)*
X46197520Y-13766800D03*
G04 #@! TO.P,J21,5*
G04 #@! TO.N,Net-(J21-Pad5)*
X58691780Y-16268700D03*
G04 #@! TO.P,J21,*
G04 #@! TO.N,*
X48694340Y-3771900D03*
X58696860Y-3771900D03*
G04 #@! TD*
D29*
G04 #@! TO.P,RV4,1*
G04 #@! TO.N,Net-(R18-Pad1)*
X282234000Y-89600800D03*
G04 #@! TO.P,RV4,2*
X284734000Y-89600800D03*
G04 #@! TO.P,RV4,3*
G04 #@! TO.N,Net-(C11-Pad2)*
X287234000Y-89600800D03*
D28*
G04 #@! TO.P,RV4,*
G04 #@! TO.N,*
X279934000Y-82600800D03*
X289534000Y-82600800D03*
G04 #@! TD*
G04 #@! TO.P,RV5,*
G04 #@! TO.N,*
X289534000Y-63798950D03*
X279934000Y-63798950D03*
D29*
G04 #@! TO.P,RV5,3*
G04 #@! TO.N,Net-(C12-Pad2)*
X287234000Y-70798950D03*
G04 #@! TO.P,RV5,2*
G04 #@! TO.N,Net-(R19-Pad1)*
X284734000Y-70798950D03*
G04 #@! TO.P,RV5,1*
X282234000Y-70798950D03*
G04 #@! TD*
G04 #@! TO.P,RV1,1*
G04 #@! TO.N,+5V*
X252394000Y-15890800D03*
G04 #@! TO.P,RV1,2*
G04 #@! TO.N,CV1*
X254894000Y-15890800D03*
G04 #@! TO.P,RV1,3*
G04 #@! TO.N,GND*
X257394000Y-15890800D03*
D28*
G04 #@! TO.P,RV1,*
G04 #@! TO.N,*
X250094000Y-8890800D03*
X259694000Y-8890800D03*
G04 #@! TD*
G04 #@! TO.P,RV2,*
G04 #@! TO.N,*
X274184800Y-8840000D03*
X264584800Y-8840000D03*
D29*
G04 #@! TO.P,RV2,3*
G04 #@! TO.N,GND*
X271884800Y-15840000D03*
G04 #@! TO.P,RV2,2*
G04 #@! TO.N,CV2*
X269384800Y-15840000D03*
G04 #@! TO.P,RV2,1*
G04 #@! TO.N,+5V*
X266884800Y-15840000D03*
G04 #@! TD*
G04 #@! TO.P,RV3,1*
G04 #@! TO.N,Net-(J23-Pad2)*
X81472400Y-32146000D03*
G04 #@! TO.P,RV3,2*
G04 #@! TO.N,Net-(J23-Pad3)*
X83972400Y-32146000D03*
G04 #@! TO.P,RV3,3*
G04 #@! TO.N,Net-(J23-Pad4)*
X86472400Y-32146000D03*
D28*
G04 #@! TO.P,RV3,*
G04 #@! TO.N,*
X79172400Y-25146000D03*
X88772400Y-25146000D03*
G04 #@! TD*
D39*
G04 #@! TO.N,GND*
X254660400Y-52984400D03*
X278841200Y-51917600D03*
G04 #@! TO.N,Net-(C12-Pad2)*
X251409200Y-63855600D03*
X258419600Y-64516000D03*
G04 #@! TO.N,Net-(R18-Pad1)*
X277876000Y-80111600D03*
G04 #@! TO.N,+12V*
X289102800Y-41960798D03*
G04 #@! TO.N,Net-(R20-Pad2)*
X271780000Y-68986400D03*
G04 #@! TO.N,SQR2*
X237845600Y-50292000D03*
G04 #@! TO.N,SQR1*
X254711200Y-77012800D03*
G04 #@! TO.N,Net-(R15-Pad2)*
X261924800Y-60248800D03*
G04 #@! TO.N,TRI2*
X258876800Y-63042800D03*
G04 #@! TD*
D40*
G04 #@! TO.N,GND*
X78897400Y-34986099D02*
X75387200Y-31475899D01*
X78897400Y-36336099D02*
X78897400Y-34986099D01*
X75387200Y-11199028D02*
X82895828Y-3690400D01*
X75387200Y-31475899D02*
X75387200Y-11199028D01*
X296113200Y-31800800D02*
X297230800Y-32918400D01*
X283413200Y-31800800D02*
X296113200Y-31800800D01*
X258222800Y-57861200D02*
X254660400Y-54298800D01*
X258622800Y-57861200D02*
X258222800Y-57861200D01*
X254660400Y-54298800D02*
X254660400Y-52984400D01*
X254660400Y-52984400D02*
X254660400Y-52984400D01*
X272656400Y-16611600D02*
X271884800Y-15840000D01*
X280913200Y-16611600D02*
X272656400Y-16611600D01*
X239410960Y-25135831D02*
X238864391Y-25135831D01*
X245519191Y-19027600D02*
X239410960Y-25135831D01*
X245519191Y-17627600D02*
X245519191Y-19027600D01*
X286758761Y-48997490D02*
X281761310Y-48997490D01*
X288358581Y-46748700D02*
X288358581Y-47397670D01*
X288358581Y-47397670D02*
X286758761Y-48997490D01*
X281761310Y-48997490D02*
X278841200Y-51917600D01*
X278841200Y-51917600D02*
X278841200Y-51917600D01*
D41*
G04 #@! TO.N,CV2*
X235712588Y-37327436D02*
X249986800Y-23053224D01*
X237337600Y-46939200D02*
X235712588Y-45314188D01*
X235712588Y-45314188D02*
X235712588Y-37327436D01*
X269384800Y-15590000D02*
X269384800Y-15840000D01*
X268309790Y-14514990D02*
X269384800Y-15590000D01*
X251999517Y-14514990D02*
X268309790Y-14514990D01*
X249986800Y-16527707D02*
X251999517Y-14514990D01*
X249986800Y-23053224D02*
X249986800Y-16527707D01*
D40*
G04 #@! TO.N,+5V*
X14851200Y-27787600D02*
X15951200Y-27787600D01*
X7745600Y-27787600D02*
X14851200Y-27787600D01*
X6807200Y-28726000D02*
X7745600Y-27787600D01*
X6807200Y-30226000D02*
X6807200Y-28726000D01*
X251339200Y-26342800D02*
X242112800Y-35569200D01*
X242112800Y-55016400D02*
X237337600Y-59791600D01*
X242112800Y-35569200D02*
X242112800Y-55016400D01*
X293727080Y-42332320D02*
X295848400Y-42332320D01*
X288326360Y-36931600D02*
X293727080Y-42332320D01*
X272330000Y-26241200D02*
X283020400Y-36931600D01*
X283020400Y-36931600D02*
X288326360Y-36931600D01*
D41*
G04 #@! TO.N,CV1*
X254894000Y-17140800D02*
X254894000Y-15890800D01*
X236162599Y-43224199D02*
X236162599Y-38209199D01*
X237337600Y-44399200D02*
X236162599Y-43224199D01*
X236162599Y-38209199D02*
X236227599Y-38144199D01*
X236227599Y-38144199D02*
X236531401Y-38144199D01*
X236531401Y-38144199D02*
X254894000Y-19781600D01*
X254894000Y-19781600D02*
X254894000Y-17140800D01*
G04 #@! TO.N,Net-(C12-Pad2)*
X252526800Y-70625770D02*
X252526800Y-74168000D01*
X252526800Y-69494400D02*
X252526800Y-70625770D01*
X251409200Y-68376800D02*
X252526800Y-69494400D01*
X251409200Y-63855600D02*
X251409200Y-68376800D01*
X258419600Y-64516000D02*
X256540000Y-62636400D01*
X252628400Y-62636400D02*
X251409200Y-63855600D01*
X256540000Y-62636400D02*
X252628400Y-62636400D01*
G04 #@! TO.N,Net-(R18-Pad1)*
X270306800Y-42621200D02*
X274472400Y-42621200D01*
X274472400Y-42621200D02*
X277858999Y-46007799D01*
X269042661Y-43885339D02*
X270306800Y-42621200D01*
X266483999Y-43885339D02*
X269042661Y-43885339D01*
X265684000Y-44685338D02*
X266483999Y-43885339D01*
X277876000Y-80111600D02*
X277858999Y-79823801D01*
X277876000Y-79545915D02*
X277876000Y-80111600D01*
X277858999Y-79528914D02*
X277876000Y-79545915D01*
X277858999Y-46007799D02*
X277858999Y-79528914D01*
G04 #@! TO.N,Net-(C11-Pad2)*
X256834000Y-73036630D02*
X256834000Y-69494400D01*
X256834000Y-74168000D02*
X256834000Y-73036630D01*
X257633999Y-68694401D02*
X256834000Y-69494400D01*
X266809001Y-59519399D02*
X257633999Y-68694401D01*
X266809001Y-57413467D02*
X266809001Y-59519399D01*
X260147810Y-48826210D02*
X260147810Y-50752276D01*
X259022800Y-47701200D02*
X260147810Y-48826210D01*
X260147810Y-50752276D02*
X266809001Y-57413467D01*
X258622800Y-47701200D02*
X259022800Y-47701200D01*
G04 #@! TO.N,Net-(J21-Pad4)*
X49949099Y-15019021D02*
X49949099Y-14109701D01*
X48699420Y-16268700D02*
X49949099Y-15019021D01*
X49949099Y-14109701D02*
X52171600Y-11887200D01*
X63246000Y-18325030D02*
X63246000Y-19456400D01*
X63246000Y-13488591D02*
X63246000Y-18325030D01*
X61644609Y-11887200D02*
X63246000Y-13488591D01*
X52171600Y-11887200D02*
X61644609Y-11887200D01*
G04 #@! TO.N,Net-(J21-Pad5)*
X70866000Y-29145430D02*
X70866000Y-30276800D01*
X70866000Y-29018198D02*
X70866000Y-29145430D01*
X59941459Y-18093657D02*
X70866000Y-29018198D01*
X59941459Y-17518379D02*
X59941459Y-18093657D01*
X58691780Y-16268700D02*
X59941459Y-17518379D01*
G04 #@! TO.N,Net-(D6-Pad2)*
X34784230Y-24460200D02*
X35915600Y-24460200D01*
X34751429Y-24493001D02*
X34784230Y-24460200D01*
X25355569Y-24493001D02*
X34751429Y-24493001D01*
X23940570Y-25908000D02*
X25355569Y-24493001D01*
X22809200Y-25908000D02*
X23940570Y-25908000D01*
G04 #@! TO.N,Net-(J11-Pad1)*
X82895828Y-15690400D02*
X82895828Y-15090400D01*
X196342000Y-36372800D02*
X190137799Y-30168599D01*
X196342000Y-42062400D02*
X196342000Y-36372800D01*
X105098599Y-30168599D02*
X91191110Y-16261110D01*
X190137799Y-30168599D02*
X105098599Y-30168599D01*
X91191110Y-16261110D02*
X83466538Y-16261110D01*
X83466538Y-16261110D02*
X82895828Y-15690400D01*
G04 #@! TO.N,Net-(J11-Pad6)*
X209042000Y-40792400D02*
X209042000Y-42062400D01*
X186029600Y-17780000D02*
X209042000Y-40792400D01*
X158631093Y-15690400D02*
X160720693Y-17780000D01*
X160720693Y-17780000D02*
X186029600Y-17780000D01*
X158631093Y-15090400D02*
X158631093Y-15690400D01*
G04 #@! TO.N,Net-(J11-Pad2)*
X198032001Y-41212401D02*
X198882000Y-42062400D01*
X98042881Y-15690400D02*
X98613591Y-16261110D01*
X99166710Y-16261110D02*
X110126601Y-27221001D01*
X98613591Y-16261110D02*
X99166710Y-16261110D01*
X189120601Y-27221001D02*
X198032001Y-36132401D01*
X110126601Y-27221001D02*
X189120601Y-27221001D01*
X198032001Y-36132401D02*
X198032001Y-41212401D01*
X98042881Y-15090400D02*
X98042881Y-15690400D01*
G04 #@! TO.N,Net-(J11-Pad3)*
X201422000Y-37795200D02*
X201422000Y-42062400D01*
X185521600Y-21894800D02*
X201422000Y-37795200D01*
X113189934Y-15690400D02*
X119394334Y-21894800D01*
X119394334Y-21894800D02*
X185521600Y-21894800D01*
X113189934Y-15090400D02*
X113189934Y-15690400D01*
G04 #@! TO.N,Net-(J10-PadT)*
X203962000Y-38608000D02*
X203962000Y-42062400D01*
X185724800Y-20370800D02*
X203962000Y-38608000D01*
X128336987Y-15690400D02*
X133017387Y-20370800D01*
X133017387Y-20370800D02*
X185724800Y-20370800D01*
X128336987Y-15090400D02*
X128336987Y-15690400D01*
G04 #@! TO.N,Net-(J11-Pad5)*
X206502000Y-39674800D02*
X206502000Y-42062400D01*
X186080400Y-19253200D02*
X206502000Y-39674800D01*
X150771402Y-19253200D02*
X186080400Y-19253200D01*
X143484040Y-15690400D02*
X147208602Y-15690400D01*
X147208602Y-15690400D02*
X150771402Y-19253200D01*
X143484040Y-15090400D02*
X143484040Y-15690400D01*
G04 #@! TO.N,Net-(J11-Pad8)*
X214071200Y-42062400D02*
X214122000Y-42062400D01*
X202285600Y-30276800D02*
X214071200Y-42062400D01*
X201159125Y-30276800D02*
X202285600Y-30276800D01*
X188925200Y-15090400D02*
X188925200Y-18042875D01*
X188925200Y-18042875D02*
X201159125Y-30276800D01*
G04 #@! TO.N,Net-(J11-Pad7)*
X210732001Y-41212401D02*
X211582000Y-42062400D01*
X185780710Y-16261110D02*
X210732001Y-41212401D01*
X174348856Y-16261110D02*
X185780710Y-16261110D01*
X173778146Y-15690400D02*
X174348856Y-16261110D01*
X173778146Y-15090400D02*
X173778146Y-15690400D01*
D40*
G04 #@! TO.N,+12V*
X4267200Y-30273500D02*
X4267200Y-30226000D01*
X7369300Y-33375600D02*
X4267200Y-30273500D01*
X15951200Y-33375600D02*
X7369300Y-33375600D01*
X62345201Y-64451599D02*
X63195200Y-63601600D01*
X62068401Y-64728399D02*
X62345201Y-64451599D01*
X47144815Y-64728399D02*
X62068401Y-64728399D01*
X41646774Y-70226440D02*
X47144815Y-64728399D01*
X41646774Y-70626440D02*
X41646774Y-70226440D01*
X63195200Y-63601600D02*
X63195200Y-61061600D01*
X294348401Y-47194561D02*
X295848400Y-48694560D01*
X283371951Y-41998470D02*
X289152310Y-41998470D01*
X257089601Y-41605200D02*
X282978681Y-41605200D01*
X289152310Y-41998470D02*
X294348401Y-47194561D01*
X257089601Y-41748001D02*
X257089601Y-41605200D01*
X253796800Y-41605200D02*
X254589599Y-41605200D01*
X253339600Y-41148000D02*
X253796800Y-41605200D01*
X254589599Y-41605200D02*
X254589599Y-41748001D01*
X282978681Y-41605200D02*
X283371951Y-41998470D01*
X254589599Y-41748001D02*
X255239599Y-42398001D01*
X255239599Y-42398001D02*
X256439601Y-42398001D01*
X256439601Y-42398001D02*
X257089601Y-41748001D01*
D41*
G04 #@! TO.N,Net-(R13-Pad1)*
X47927600Y-25908000D02*
X47244000Y-25224400D01*
X49377600Y-25908000D02*
X47927600Y-25908000D01*
X62446001Y-22263201D02*
X63246000Y-23063200D01*
X59885790Y-19702990D02*
X62446001Y-22263201D01*
X47917608Y-19702990D02*
X59885790Y-19702990D01*
X47244000Y-20376598D02*
X47917608Y-19702990D01*
X47244000Y-25224400D02*
X47244000Y-20376598D01*
G04 #@! TO.N,Net-(D6-Pad1)*
X42485600Y-24460200D02*
X43535600Y-24460200D01*
X40268399Y-22242999D02*
X42485600Y-24460200D01*
X23934201Y-22242999D02*
X40268399Y-22242999D01*
X22809200Y-23368000D02*
X23934201Y-22242999D01*
G04 #@! TO.N,Net-(R21-Pad2)*
X256449200Y-80507200D02*
X265734800Y-71221600D01*
X256449200Y-82854800D02*
X256449200Y-80507200D01*
G04 #@! TO.N,Net-(R20-Pad2)*
X271790800Y-82753200D02*
X271790800Y-68997200D01*
X271790800Y-68997200D02*
X271780000Y-68986400D01*
G04 #@! TO.N,SQR2*
X251402800Y-45161200D02*
X251002800Y-45161200D01*
X252527810Y-46286210D02*
X251402800Y-45161200D01*
X252527810Y-48677214D02*
X252527810Y-46286210D01*
X257756806Y-53906210D02*
X252527810Y-48677214D01*
X261636742Y-53906210D02*
X257756806Y-53906210D01*
X265684000Y-57953468D02*
X261636742Y-53906210D01*
X234543600Y-83972400D02*
X234543600Y-53594000D01*
X237337600Y-86766400D02*
X234543600Y-83972400D01*
X234543600Y-53594000D02*
X237845600Y-50292000D01*
X237845600Y-50292000D02*
X237845600Y-50292000D01*
G04 #@! TO.N,SQR1*
X265684000Y-52305338D02*
X265684000Y-53530758D01*
X273304000Y-44685338D02*
X265684000Y-52305338D01*
X260072800Y-60401200D02*
X261061200Y-61389600D01*
X258622800Y-60401200D02*
X260072800Y-60401200D01*
X261061200Y-63602198D02*
X254711200Y-69952198D01*
X261061200Y-61389600D02*
X261061200Y-63602198D01*
X254711200Y-69952198D02*
X254711200Y-77012800D01*
X254711200Y-77012800D02*
X254711200Y-77266800D01*
G04 #@! TO.N,Net-(R15-Pad2)*
X260952190Y-59276190D02*
X258046786Y-59276190D01*
X261924800Y-60248800D02*
X260952190Y-59276190D01*
X258046786Y-59276190D02*
X252527810Y-53757214D01*
X252527810Y-53757214D02*
X252527810Y-51366210D01*
X252527810Y-51366210D02*
X251402800Y-50241200D01*
X251402800Y-50241200D02*
X251002800Y-50241200D01*
G04 #@! TO.N,TRI2*
X250026800Y-81432400D02*
X251449200Y-82854800D01*
X250026800Y-74168000D02*
X250026800Y-81432400D01*
X251002800Y-61451200D02*
X251002800Y-60401200D01*
X248901799Y-63552201D02*
X251002800Y-61451200D01*
X248901799Y-71911629D02*
X248901799Y-63552201D01*
X250026800Y-73036630D02*
X248901799Y-71911629D01*
X250026800Y-74168000D02*
X250026800Y-73036630D01*
X256235200Y-60401200D02*
X251002800Y-60401200D01*
X258876800Y-63042800D02*
X256235200Y-60401200D01*
G04 #@! TO.N,TRI1*
X261737152Y-45161200D02*
X265684000Y-49108048D01*
X258622800Y-45161200D02*
X261737152Y-45161200D01*
X266483999Y-48308049D02*
X265684000Y-49108048D01*
X273844001Y-43560337D02*
X271231711Y-43560337D01*
X274429001Y-44145337D02*
X273844001Y-43560337D01*
X272178999Y-47475341D02*
X274429001Y-45225339D01*
X272178999Y-58638887D02*
X272178999Y-47475341D01*
X259334000Y-71483886D02*
X272178999Y-58638887D01*
X271231711Y-43560337D02*
X266483999Y-48308049D01*
X274429001Y-45225339D02*
X274429001Y-44145337D01*
X259334000Y-74168000D02*
X259334000Y-71483886D01*
G04 #@! TO.N,MIDI_RX*
X69387599Y-44761401D02*
X72416599Y-44761401D01*
X67868800Y-43242602D02*
X69387599Y-44761401D01*
X67868800Y-39777398D02*
X67868800Y-43242602D01*
X57715203Y-29623801D02*
X67868800Y-39777398D01*
X35915600Y-28498800D02*
X37040601Y-29623801D01*
X37040601Y-29623801D02*
X57715203Y-29623801D01*
X72416599Y-44761401D02*
X72491600Y-44686400D01*
X72491600Y-44686400D02*
X72491600Y-43586400D01*
G04 #@! TO.N,Net-(R10-Pad2)*
X56597600Y-28448000D02*
X56997600Y-28448000D01*
X55547600Y-27398000D02*
X56597600Y-28448000D01*
X55547600Y-26998000D02*
X55547600Y-27398000D01*
X51917600Y-23368000D02*
X55547600Y-26998000D01*
X49377600Y-23368000D02*
X51917600Y-23368000D01*
G04 #@! TO.N,Net-(D5-Pad2)*
X240896391Y-27218631D02*
X242979191Y-25135831D01*
X232463591Y-27218631D02*
X240896391Y-27218631D01*
G04 #@! TO.N,Net-(D4-Pad2)*
X233919859Y-25135831D02*
X236324391Y-25135831D01*
X232463591Y-23679563D02*
X233919859Y-25135831D01*
G04 #@! TO.N,Net-(D3-Pad2)*
X240466294Y-20140497D02*
X242979191Y-17627600D01*
X232463591Y-20140497D02*
X240466294Y-20140497D01*
G04 #@! TO.N,Net-(D2-Pad2)*
X235298222Y-16601431D02*
X236324391Y-17627600D01*
X232463591Y-16601431D02*
X235298222Y-16601431D01*
G04 #@! TO.N,Net-(J8-Pad8)*
X46662442Y-55219600D02*
X63246000Y-55219600D01*
X39289825Y-47846983D02*
X46662442Y-55219600D01*
G04 #@! TO.N,Net-(J8-Pad7)*
X62396001Y-51829601D02*
X63246000Y-52679600D01*
X56952915Y-46386515D02*
X62396001Y-51829601D01*
X43743570Y-46386515D02*
X56952915Y-46386515D01*
X40704038Y-43346983D02*
X43743570Y-46386515D01*
X39289825Y-43346983D02*
X40704038Y-43346983D01*
G04 #@! TO.N,Net-(J8-Pad6)*
X62396001Y-49289601D02*
X63246000Y-50139600D01*
X53134384Y-40027984D02*
X62396001Y-49289601D01*
X40479360Y-40027984D02*
X53134384Y-40027984D01*
X39289825Y-38838449D02*
X40479360Y-40027984D01*
G04 #@! TO.N,Net-(J8-Pad5)*
X62396001Y-46749601D02*
X63246000Y-47599600D01*
X51174384Y-35527984D02*
X62396001Y-46749601D01*
X40479360Y-35527984D02*
X51174384Y-35527984D01*
X39289825Y-34338449D02*
X40479360Y-35527984D01*
G04 #@! TO.N,Net-(J18-Pad1)*
X200180630Y-25913303D02*
X200180630Y-27013303D01*
X199005629Y-24738302D02*
X200180630Y-25913303D01*
X199005629Y-15246601D02*
X199005629Y-24738302D01*
X200180630Y-14071600D02*
X199005629Y-15246601D01*
G04 #@! TO.N,Net-(J18-Pad2)*
X201870631Y-26163304D02*
X202720630Y-27013303D01*
X201355631Y-25648304D02*
X201870631Y-26163304D01*
X201355631Y-15396599D02*
X201355631Y-25648304D01*
X202680630Y-14071600D02*
X201355631Y-15396599D01*
G04 #@! TO.N,Net-(J18-Pad3)*
X204410631Y-26163304D02*
X205260630Y-27013303D01*
X204085629Y-25838302D02*
X204410631Y-26163304D01*
X204085629Y-15166601D02*
X204085629Y-25838302D01*
X205180630Y-14071600D02*
X204085629Y-15166601D01*
G04 #@! TO.N,Net-(J20-Pad3)*
X206110629Y-19508504D02*
X205260630Y-20358503D01*
X206267640Y-19351493D02*
X206110629Y-19508504D01*
X206267640Y-9061010D02*
X206267640Y-19351493D01*
X205180630Y-7974000D02*
X206267640Y-9061010D01*
X205180630Y-7112000D02*
X205180630Y-7974000D01*
G04 #@! TO.N,Net-(J20-Pad2)*
X203401748Y-7833118D02*
X202680630Y-7112000D01*
X203767640Y-8199010D02*
X203401748Y-7833118D01*
X203767640Y-14745042D02*
X203767640Y-8199010D01*
X202720630Y-15792052D02*
X203767640Y-14745042D01*
X202720630Y-20358503D02*
X202720630Y-15792052D01*
G04 #@! TO.N,Net-(J20-Pad1)*
X200901748Y-7833118D02*
X200180630Y-7112000D01*
X201267640Y-8199010D02*
X200901748Y-7833118D01*
X201267640Y-14745042D02*
X201267640Y-8199010D01*
X200180630Y-15832052D02*
X201267640Y-14745042D01*
X200180630Y-20358503D02*
X200180630Y-15832052D01*
G04 #@! TO.N,Net-(J22-Pad1)*
X211926148Y-7833118D02*
X211205030Y-7112000D01*
X212292040Y-8199010D02*
X211926148Y-7833118D01*
X212292040Y-14745042D02*
X212292040Y-8199010D01*
X211205030Y-15832052D02*
X212292040Y-14745042D01*
X211205030Y-20358503D02*
X211205030Y-15832052D01*
G04 #@! TO.N,Net-(J22-Pad2)*
X214426148Y-7833118D02*
X213705030Y-7112000D01*
X214792040Y-8199010D02*
X214426148Y-7833118D01*
X214792040Y-14745042D02*
X214792040Y-8199010D01*
X214595029Y-14942053D02*
X214792040Y-14745042D01*
X214595029Y-19508504D02*
X214595029Y-14942053D01*
X213745030Y-20358503D02*
X214595029Y-19508504D01*
G04 #@! TO.N,Net-(J22-Pad3)*
X216926148Y-7833118D02*
X216205030Y-7112000D01*
X217292040Y-8199010D02*
X216926148Y-7833118D01*
X217292040Y-18149412D02*
X217292040Y-8199010D01*
X216285030Y-19156422D02*
X217292040Y-18149412D01*
X216285030Y-20358503D02*
X216285030Y-19156422D01*
G04 #@! TO.N,Net-(J19-Pad3)*
X215483912Y-14792718D02*
X216205030Y-14071600D01*
X215110029Y-15166601D02*
X215483912Y-14792718D01*
X215110029Y-24636221D02*
X215110029Y-15166601D01*
X216285030Y-25811222D02*
X215110029Y-24636221D01*
X216285030Y-27013303D02*
X216285030Y-25811222D01*
G04 #@! TO.N,Net-(J19-Pad2)*
X212895031Y-26163304D02*
X213745030Y-27013303D01*
X212570029Y-25838302D02*
X212895031Y-26163304D01*
X212570029Y-15206601D02*
X212570029Y-25838302D01*
X213705030Y-14071600D02*
X212570029Y-15206601D01*
G04 #@! TO.N,Net-(J19-Pad1)*
X211205030Y-25913303D02*
X211205030Y-27013303D01*
X210030029Y-24738302D02*
X211205030Y-25913303D01*
X210030029Y-16108601D02*
X210030029Y-24738302D01*
X211205030Y-14933600D02*
X210030029Y-16108601D01*
X211205030Y-14071600D02*
X211205030Y-14933600D01*
G04 #@! TO.N,Net-(C14-Pad2)*
X250826799Y-70294399D02*
X250026800Y-69494400D01*
X251401799Y-70869399D02*
X250826799Y-70294399D01*
X251401799Y-80307399D02*
X251401799Y-70869399D01*
X253949200Y-82854800D02*
X251401799Y-80307399D01*
G04 #@! TO.N,MIDI_TX*
X58447600Y-23368000D02*
X56997600Y-23368000D01*
X61609002Y-23368000D02*
X58447600Y-23368000D01*
X69951600Y-31710598D02*
X61609002Y-23368000D01*
X69951600Y-43586400D02*
X69951600Y-31710598D01*
G04 #@! TO.N,Net-(J16-Pad2)*
X222199200Y-22784888D02*
X224843591Y-20140497D01*
X223367600Y-41706800D02*
X222199200Y-40538400D01*
X222199200Y-40538400D02*
X222199200Y-22784888D01*
G04 #@! TO.N,Net-(J16-Pad4)*
X228447600Y-30822640D02*
X224843591Y-27218631D01*
X228447600Y-41706800D02*
X228447600Y-30822640D01*
G04 #@! TO.N,Net-(J16-Pad3)*
X224043592Y-24479562D02*
X224843591Y-23679563D01*
X223718590Y-24804564D02*
X224043592Y-24479562D01*
X223718590Y-38315709D02*
X223718590Y-24804564D01*
X225907600Y-40504719D02*
X223718590Y-38315709D01*
X225907600Y-41706800D02*
X225907600Y-40504719D01*
G04 #@! TO.N,Net-(J16-Pad1)*
X220827600Y-20617422D02*
X224843591Y-16601431D01*
X220827600Y-41706800D02*
X220827600Y-20617422D01*
G04 #@! TO.N,TEST1*
X287184440Y-72123960D02*
X287679283Y-72123960D01*
X287679283Y-72123960D02*
X288309010Y-71494233D01*
X265379200Y-93929200D02*
X287184440Y-72123960D01*
X294348401Y-56556799D02*
X295848400Y-55056800D01*
X291609001Y-59296199D02*
X294348401Y-56556799D01*
X291609001Y-69629799D02*
X291609001Y-59296199D01*
X289744567Y-71494233D02*
X291609001Y-69629799D01*
X288309010Y-71494233D02*
X289744567Y-71494233D01*
X245160800Y-89611200D02*
X246260800Y-89611200D01*
X246260800Y-89611200D02*
X250578800Y-93929200D01*
X250578800Y-93929200D02*
X265379200Y-93929200D01*
G04 #@! TO.N,TEST2*
X294348401Y-62919039D02*
X295848400Y-61419040D01*
X293217600Y-72388202D02*
X293217600Y-64049840D01*
X270965402Y-94640400D02*
X293217600Y-72388202D01*
X247650000Y-94640400D02*
X270965402Y-94640400D01*
X245160800Y-92151200D02*
X247650000Y-94640400D01*
X293217600Y-64049840D02*
X294348401Y-62919039D01*
G04 #@! TO.N,TEST3*
X295848400Y-70393813D02*
X295848400Y-69902600D01*
X245973600Y-95504000D02*
X270738213Y-95504000D01*
X245160800Y-94691200D02*
X245973600Y-95504000D01*
X295848400Y-69902600D02*
X295848400Y-67781280D01*
X270738213Y-95504000D02*
X295848400Y-70393813D01*
G04 #@! TO.N,TEST4*
X293727080Y-74143520D02*
X295848400Y-74143520D01*
X271489399Y-96381201D02*
X293727080Y-74143520D01*
X246010799Y-96381201D02*
X271489399Y-96381201D01*
X245160800Y-97231200D02*
X246010799Y-96381201D01*
G04 #@! TO.N,Net-(J58-Pad1)*
X256608400Y-90068400D02*
X257708400Y-90068400D01*
X247802400Y-81262400D02*
X256608400Y-90068400D01*
X247802400Y-45776598D02*
X247802400Y-81262400D01*
X251904201Y-34816797D02*
X251904201Y-41674797D01*
X284533200Y-28026200D02*
X283118210Y-26611210D01*
X285983200Y-28026200D02*
X284533200Y-28026200D01*
X283118210Y-26611210D02*
X274661012Y-26611210D01*
X274661012Y-26611210D02*
X272966001Y-24916199D01*
X251904201Y-41674797D02*
X247802400Y-45776598D01*
X272966001Y-24916199D02*
X261804799Y-24916199D01*
X261804799Y-24916199D02*
X251904201Y-34816797D01*
G04 #@! TO.N,Net-(J58-Pad2)*
X275658600Y-24231600D02*
X276913200Y-25486200D01*
X246837200Y-81737200D02*
X246837200Y-42187990D01*
X257708400Y-92608400D02*
X246837200Y-81737200D01*
X246837200Y-42187990D02*
X248901799Y-40123391D01*
X276913200Y-25486200D02*
X278363200Y-25486200D01*
X248901799Y-40123391D02*
X248901799Y-31319199D01*
X248901799Y-31319199D02*
X255989398Y-24231600D01*
X255989398Y-24231600D02*
X275658600Y-24231600D01*
G04 #@! TO.N,Net-(J59-PadT)*
X285983200Y-23996200D02*
X285983200Y-25486200D01*
X285983200Y-22946200D02*
X285983200Y-23996200D01*
G04 #@! TO.N,Net-(J59-PadR)*
X278363200Y-21456200D02*
X278363200Y-22946200D01*
X278363200Y-20406200D02*
X278363200Y-21456200D01*
G04 #@! TD*
M02*
