M48
INCH,TZ
T1C0.0157
T2C0.0197
T3C0.0236
T4C0.0315
T5C0.0354
T6C0.0392
T7C0.0393
T8C0.0394
T9C0.0433
T10C0.0550
T11C0.0591
T12C0.0630
T13C0.0709
T14C0.0866
T15C0.1260
%
G90
G05
T1
X93640Y-19800
X98980Y-25140
X100260Y-20860
X100280Y-30320
X101740Y-25400
X101920Y-24820
X103120Y-23720
X107000Y-27160
X109400Y-31540
X109780Y-20440
X113820Y-16520
T2
X114995Y-37500
X115272Y-36832
X115272Y-38168
X115940Y-36555
X115940Y-38445
X116608Y-36832
X116608Y-38168
X116885Y-37500
X92715Y-37500
X92992Y-36832
X92992Y-38168
X93660Y-36555
X93660Y-38445
X94328Y-36832
X94328Y-38168
X94605Y-37500
X114995Y-1940
X115272Y-1272
X115272Y-2608
X115940Y-995
X115940Y-2885
X116608Y-1272
X116608Y-2608
X116885Y-1940
X26575Y-1940
X26852Y-1272
X26852Y-2608
X27520Y-995
X27520Y-2885
X28188Y-1272
X28188Y-2608
X28465Y-1940
X88315Y-1940
X88592Y-1272
X88592Y-2608
X89260Y-995
X89260Y-2885
X89928Y-1272
X89928Y-2608
X90205Y-1940
X1175Y-1940
X1452Y-1272
X1452Y-2608
X2120Y-995
X2120Y-2885
X2788Y-1272
X2788Y-2608
X3065Y-1940
X1175Y-37500
X1452Y-36832
X1452Y-38168
X2120Y-36555
X2120Y-38445
X2788Y-36832
X2788Y-38168
X3065Y-37500
X23735Y-37500
X24012Y-36832
X24012Y-38168
X24680Y-36555
X24680Y-38445
X25348Y-36832
X25348Y-38168
X25625Y-37500
T3
X5260Y-5302
X5260Y-6090
X83152Y-5540
X84136Y-5540
X85120Y-5540
X83152Y-2800
X84136Y-2800
X85120Y-2800
X78811Y-2800
X79796Y-2800
X80780Y-2800
X6280Y-10940
X6280Y-11727
X5220Y-7172
X5220Y-7959
X78811Y-5540
X79796Y-5540
X80780Y-5540
X105036Y-32580
X106020Y-32580
X107004Y-32580
X98996Y-32620
X99980Y-32620
X100964Y-32620
X6280Y-13140
X6280Y-13927
T4
X24900Y-7660
X27900Y-7660
X88521Y-6536
X91521Y-6536
X104600Y-15851
X107600Y-15851
X101116Y-27360
X102100Y-27360
X98732Y-13600
X101732Y-13600
X98436Y-29200
X99420Y-29200
X8980Y-8200
X8980Y-9200
X8980Y-10200
X8980Y-11200
X11980Y-8200
X11980Y-9200
X11980Y-10200
X11980Y-11200
X88521Y-7929
X91521Y-7929
X88521Y-9323
X91521Y-9323
X104600Y-17593
X107600Y-17593
X4728Y-9040
X5712Y-9040
X98820Y-17780
X98820Y-18780
X98820Y-19780
X98820Y-20780
X98820Y-21780
X98820Y-22780
X98820Y-23780
X101820Y-17780
X101820Y-18780
X101820Y-19780
X101820Y-20780
X101820Y-21780
X101820Y-22780
X101820Y-23780
X14140Y-9630
X17140Y-9630
X14140Y-11220
X17140Y-11220
X104600Y-26299
X107600Y-26299
X3196Y-24806
X3196Y-27806
X4196Y-24806
X4196Y-27806
X5196Y-24806
X5196Y-27806
X6196Y-24806
X6196Y-27806
X7196Y-24806
X7196Y-27806
X8196Y-24806
X8196Y-27806
X9196Y-24806
X9196Y-27806
X24900Y-10500
X27900Y-10500
X104600Y-22816
X107600Y-22816
X1780Y-25920
X1780Y-26904
X19440Y-8200
X19440Y-9200
X19440Y-10200
X19440Y-11200
X22440Y-8200
X22440Y-9200
X22440Y-10200
X22440Y-11200
X88521Y-10716
X91521Y-10716
X24900Y-9080
X27900Y-9080
X104600Y-21075
X107600Y-21075
X109592Y-8034
X109592Y-9034
X109592Y-10034
X109592Y-11034
X112592Y-8034
X112592Y-9034
X112592Y-10034
X112592Y-11034
X14140Y-8040
X17140Y-8040
X110596Y-12520
X111580Y-12520
X10560Y-25936
X10560Y-26920
X4768Y-4200
X5752Y-4200
X99880Y-25380
X100864Y-25380
X104600Y-19334
X107600Y-19334
X110596Y-6540
X111580Y-6540
X104600Y-24558
X107600Y-24558
X101116Y-29200
X102100Y-29200
X7560Y-4120
X7560Y-7120
X99740Y-16200
X100724Y-16200
X11980Y-25936
X11980Y-26920
X20740Y-25976
X20740Y-26960
X13396Y-24806
X13396Y-27806
X14396Y-24806
X14396Y-27806
X15396Y-24806
X15396Y-27806
X16396Y-24806
X16396Y-27806
X17396Y-24806
X17396Y-27806
X18396Y-24806
X18396Y-27806
X19396Y-24806
X19396Y-27806
X104437Y-13560
X107437Y-13560
X104620Y-28040
X107620Y-28040
X24900Y-11920
X27900Y-11920
X98436Y-27360
X99420Y-27360
T5
X5280Y-1440
X5280Y-2440
X93041Y-9896
X94041Y-9896
X95661Y-9896
X96661Y-9896
X4560Y-33900
X4560Y-34900
X4560Y-35900
X4560Y-36900
X93041Y-6940
X94041Y-6940
X95661Y-6940
X96661Y-6940
X9949Y-37080
X10949Y-37080
X11949Y-37080
X12949Y-37080
T8
X38440Y-16280
X39440Y-16280
X40440Y-16280
X83152Y-8015
X84152Y-8015
X85152Y-8015
X13400Y-22920
X14400Y-22920
X15400Y-22920
X16400Y-22920
X17400Y-22920
X18400Y-22920
X19400Y-22920
X105073Y-6236
X106057Y-6236
X107041Y-6236
X37441Y-14306
X38441Y-14306
X39441Y-14306
X40441Y-14306
X41441Y-14306
X63960Y-12340
X64960Y-12340
X65960Y-12340
X51216Y-12656
X52200Y-12656
X53184Y-12656
X3200Y-29700
X4200Y-29700
X5200Y-29700
X6200Y-29700
X7200Y-29700
X8200Y-29700
X9200Y-29700
X57596Y-12656
X58580Y-12656
X59564Y-12656
X111116Y-35276
X112100Y-35276
X113084Y-35276
X22100Y-33980
X22100Y-34980
X22100Y-35980
X22100Y-36980
X32076Y-12656
X33060Y-12656
X34044Y-12656
X62960Y-14306
X63960Y-14306
X64960Y-14306
X65960Y-14306
X66960Y-14306
X13400Y-29700
X14400Y-29700
X15400Y-29700
X16400Y-29700
X17400Y-29700
X18400Y-29700
X19400Y-29700
X93440Y-31160
X93440Y-32160
X93440Y-33160
X93440Y-34160
X111116Y-27874
X112100Y-27874
X113084Y-27874
X93440Y-15480
X93440Y-16480
X93440Y-17480
X93440Y-18480
X57580Y-16280
X58580Y-16280
X59580Y-16280
X63960Y-16280
X64960Y-16280
X65960Y-16280
X83152Y-10635
X84152Y-10635
X85152Y-10635
X38456Y-12656
X39440Y-12656
X40424Y-12656
X24900Y-14740
X24900Y-15740
X24900Y-16740
X24900Y-17740
X24900Y-18740
X24900Y-19740
X24900Y-20740
X24900Y-21740
X99368Y-6256
X100352Y-6256
X101336Y-6256
X101460Y-35460
X101460Y-36460
X93440Y-21540
X93440Y-22540
X93440Y-23540
X93440Y-24540
X93440Y-25540
X93440Y-26540
X93440Y-27540
X93440Y-28540
X51200Y-16280
X52200Y-16280
X53200Y-16280
X27540Y-17160
X28540Y-17160
X3200Y-22920
X4200Y-22920
X5200Y-22920
X6200Y-22920
X7200Y-22920
X8200Y-22920
X9200Y-22920
X70760Y-12340
X71760Y-12340
X72760Y-12340
X78811Y-10635
X79811Y-10635
X80811Y-10635
X43821Y-14306
X44821Y-14306
X45821Y-14306
X46821Y-14306
X47821Y-14306
X31062Y-14306
X32062Y-14306
X33062Y-14306
X34062Y-14306
X35062Y-14306
X92402Y-2780
X92402Y-3780
X93402Y-2780
X93402Y-3780
X94402Y-2780
X94402Y-3780
X95402Y-2780
X95402Y-3780
X96402Y-2780
X96402Y-3780
X44820Y-16280
X45820Y-16280
X46820Y-16280
X69759Y-14326
X70759Y-14326
X71759Y-14326
X72759Y-14326
X73759Y-14326
X70760Y-16280
X71760Y-16280
X72760Y-16280
X78811Y-8015
X79811Y-8015
X80811Y-8015
X44836Y-12656
X45820Y-12656
X46804Y-12656
X96520Y-35280
X96520Y-36280
X96520Y-37280
X96520Y-38280
X24880Y-24040
X24880Y-25040
X24880Y-26040
X24880Y-27040
X24880Y-28040
X24880Y-29040
X24880Y-30040
X24880Y-31040
X32060Y-16280
X33060Y-16280
X34060Y-16280
X56580Y-14306
X57580Y-14306
X58580Y-14306
X59580Y-14306
X60580Y-14306
X86940Y-16420
X87940Y-16420
X88940Y-16420
X89940Y-16420
X77300Y-16560
X78300Y-16560
X79300Y-16560
X80300Y-16560
X81300Y-16560
X82300Y-16560
X83300Y-16560
X84300Y-16560
X1660Y-5160
X1660Y-6160
X1660Y-7160
X1660Y-8160
X1660Y-9160
X2660Y-5160
X2660Y-6160
X2660Y-7160
X2660Y-8160
X2660Y-9160
X117020Y-5960
X117020Y-6960
X117020Y-7960
X117020Y-8960
X117020Y-9960
X117020Y-10960
X117020Y-11960
X117020Y-12960
X50200Y-14306
X51200Y-14306
X52200Y-14306
X53200Y-14306
X54200Y-14306
T9
X12909Y-17066
X12909Y-18837
X15468Y-17066
X15468Y-18837
X17349Y-13466
X17349Y-15237
X19908Y-13466
X19908Y-15237
X98952Y-10371
X98952Y-12143
X101511Y-10371
X101511Y-12143
X1680Y-11900
X2680Y-11900
X3680Y-11900
X17349Y-17012
X17349Y-18784
X19908Y-17012
X19908Y-18784
X104657Y-10331
X104657Y-12103
X107217Y-10331
X107217Y-12103
X12909Y-13519
X12909Y-15291
X15468Y-13519
X15468Y-15291
T10
X18188Y-5420
X19171Y-1485
X19173Y-6405
X21140Y-5421
X23107Y-6405
X23109Y-1485
X24092Y-5420
X10008Y-5320
X10991Y-1385
X10993Y-6305
X12960Y-5321
X14927Y-6305
X14929Y-1385
X15912Y-5320
T11
X116476Y-31695
X116476Y-29190
X116476Y-24181
X116476Y-21676
X116476Y-16666
X116476Y-34200
X116476Y-26686
X116476Y-19171
T12
X38600Y-1415
X62453Y-1415
X74380Y-1415
X32636Y-1415
X44563Y-1415
X56490Y-1415
X50526Y-1415
X68417Y-1415
T13
X38600Y-2636
X38600Y-5903
X62453Y-2636
X62453Y-5903
X74380Y-2636
X74380Y-5903
X32636Y-2636
X32636Y-5903
X44563Y-2636
X44563Y-5903
X56490Y-2636
X56490Y-5903
X50526Y-2636
X50526Y-5903
X68417Y-2636
X68417Y-5903
T14
X43930Y-9900
X47710Y-9900
X104167Y-3480
X107947Y-3480
X50310Y-9900
X54090Y-9900
X56690Y-9900
X60470Y-9900
X110210Y-32520
X113990Y-32520
X31170Y-9900
X34950Y-9900
X110210Y-25118
X113990Y-25118
X37550Y-9900
X41330Y-9900
X98462Y-3500
X102242Y-3500
T15
X27520Y-1940
X24680Y-37500
X115940Y-1940
X2120Y-1940
X2120Y-37500
X115940Y-37500
X93660Y-37500
X89260Y-1940
T6
X110695Y-18168G85X110695Y-18642
G05
X113527Y-18168G85X113527Y-18642
G05
T7
X111836Y-17145G85X112309Y-17145
G05
X111836Y-20332G85X112309Y-20332
G05
T0
M30
